<svg xmlns="http://www.w3.org/2000/svg" version="1.0" width="718.000000pt" height="1024.000000pt" viewBox="-3 -3 724 1030" preserveAspectRatio="xMidYMid meet"><g id="deeditor_bgCarrier" stroke-width="0">
    <rect id="dee_c_e" x="-3" y="-3" width="724" height="1030" rx="0" fill="#fbfc17" strokewidth="0"/>
  </g>

<g transform="translate(0.000000,1024.000000) scale(0.100000,-0.100000)" fill="#0a0903" stroke="none">
<path d="M1273 10213 c-5 -16 -8 -117 -8 -225 0 -184 -1 -197 -17 -192 -10 3 -18 1 -18 -5 0 -6 5 -11 10 -11 6 0 10 -5 10 -10 0 -7 -6 -7 -20 0 -12 6 -20 7 -20 1 0 -5 6 -11 13 -14 8 -3 5 -11 -10 -26 -24 -23 -31 -37 -12 -25 7 4 0 -11 -15 -32 -22 -33 -24 -40 -10 -42 9 -2 13 -10 10 -19 -5 -11 -2 -13 9 -9 9 3 13 2 10 -4 -3 -6 -14 -10 -23 -11 -11 0 -7 -5 10 -13 22 -9 25 -15 16 -24 -7 -7 -17 -12 -24 -12 -11 0 -24 -21 -24 -41 0 -5 5 -9 11 -9 6 0 9 7 5 15 -7 19 1 19 19 1 8 -7 11 -17 7 -22 -4 -5 1 -3 10 5 11 8 22 10 34 3 11 -6 13 -11 5 -16 -6 -4 -11 -12 -11 -19 0 -8 3 -8 12 1 7 7 16 12 22 12 5 0 6 -3 3 -7 -9 -8 48 -43 71 -43 11 0 13 -3 5 -8 -23 -15 -20 -64 4 -55 12 5 14 3 8 -8 -5 -7 -10 -21 -10 -31 -1 -14 4 -16 24 -12 14 3 22 2 16 -3 -17 -14 -17 -43 0 -43 8 0 15 5 15 12 0 6 13 -3 28 -20 23 -25 37 -32 70 -34 22 -1 40 -6 39 -12 -1 -5 5 -11 13 -12 26 -2 60 -16 60 -24 0 -4 18 -10 41 -14 57 -9 119 -29 119 -39 0 -4 20 -5 45 -2 25 3 45 1 45 -4 0 -5 28 -10 63 -11 91 -2 107 -3 107 -12 0 -4 13 -5 30 -2 18 4 36 1 45 -6 8 -7 24 -10 35 -7 11 3 22 1 25 -3 3 -4 32 -11 64 -15 46 -5 58 -10 54 -21 -6 -16 -3 -16 102 -15 39 0 85 -4 102 -9 36 -9 76 -3 67 11 -3 5 2 9 10 9 8 0 18 -5 21 -10 4 -6 21 -8 42 -4 25 5 38 3 45 -7 7 -11 11 -11 15 -1 2 6 10 9 15 6 6 -4 32 -6 57 -6 33 1 42 -1 31 -8 -11 -7 -12 -12 -3 -21 9 -9 16 -8 29 5 13 13 31 17 82 14 45 -2 67 1 70 10 2 6 8 12 13 12 6 0 7 -5 3 -11 -3 -6 5 -3 19 6 16 10 40 15 63 13 23 -2 39 2 42 10 2 6 10 12 18 12 9 0 12 -4 9 -10 -3 -5 0 -7 9 -4 8 3 22 -3 32 -14 18 -22 44 -19 44 5 0 8 5 11 10 8 6 -4 8 -10 5 -14 -6 -11 50 -22 70 -15 8 4 14 14 13 23 -2 12 4 15 26 13 16 -2 32 2 36 8 5 8 33 12 74 13 75 0 96 -15 94 -68 l-1 -30 -4 28 c-2 15 -8 27 -13 27 -15 0 -6 -46 13 -65 13 -13 18 -31 17 -64 -4 -100 0 -454 5 -450 2 3 7 104 10 225 5 236 9 295 23 322 5 9 7 22 5 29 -2 6 3 23 12 37 13 20 20 23 29 13 7 -6 11 -20 8 -31 -5 -19 -5 -19 15 0 13 12 17 23 11 31 -5 7 -5 14 1 17 13 9 23 -10 17 -32 -3 -9 -1 -24 4 -32 8 -12 10 -11 10 7 0 25 15 39 25 23 9 -15 25 -12 19 4 -3 7 2 16 11 20 9 3 13 10 10 16 -4 6 5 10 19 10 14 0 26 -4 26 -9 0 -11 31 -24 39 -16 3 4 -5 14 -17 23 l-23 18 26 2 c19 1 25 -3 25 -18 0 -12 7 -20 16 -20 14 0 14 3 4 15 -10 12 -10 15 4 15 9 0 16 -5 16 -11 0 -6 7 -9 15 -5 8 3 15 1 15 -5 0 -6 5 -7 10 -4 6 4 8 15 5 25 -4 13 1 19 19 22 14 3 27 1 29 -5 1 -5 16 -7 36 -2 22 5 31 11 27 21 -7 18 14 30 24 14 7 -11 12 -10 25 3 9 10 26 17 39 17 12 0 26 4 32 9 5 5 27 11 49 14 22 3 47 8 55 11 8 3 33 7 55 10 22 2 49 8 59 12 14 5 17 4 12 -4 -9 -15 -6 -15 37 3 19 8 50 17 69 19 18 2 46 10 61 17 23 10 32 10 49 0 11 -7 17 -8 13 -2 -3 7 2 11 14 11 12 0 21 5 21 11 0 7 14 10 35 7 19 -2 35 0 35 5 0 4 9 5 20 2 12 -4 20 -2 20 5 0 6 5 8 11 4 6 -3 15 0 20 7 7 11 11 12 17 1 5 -7 26 -15 47 -17 37 -3 38 8 0 19 -11 3 -5 4 13 2 18 -1 37 3 44 11 9 11 14 11 26 1 9 -7 13 -8 10 -2 -4 6 7 10 28 10 20 0 39 6 43 12 4 7 15 10 24 6 9 -3 17 -2 17 4 0 5 12 12 28 15 15 3 42 10 60 15 25 8 32 8 29 -1 -2 -7 -14 -11 -26 -10 -13 2 -20 -1 -16 -7 9 -15 36 -12 56 6 10 9 39 19 63 21 25 3 43 9 41 13 -7 12 35 20 75 15 41 -5 73 2 65 16 -4 5 2 10 12 10 10 1 25 3 33 4 8 1 21 3 29 4 8 0 11 7 7 17 -9 22 11 44 40 44 15 0 24 6 24 16 0 12 6 15 21 11 13 -3 19 -1 16 6 -4 14 19 40 30 34 5 -3 9 8 10 25 1 17 12 38 24 49 11 10 18 23 14 28 -3 6 -1 11 4 11 16 0 42 69 37 99 -2 14 -9 25 -15 24 -6 -2 -11 11 -11 30 -1 17 -1 91 -1 162 0 72 -3 149 -6 173 l-6 42 -2228 0 -2229 0 -7 -27z m4437 -516 c0 -2 -10 -12 -22 -23 l-23 -19 19 23 c18 21 26 27 26 19z m-1952 -613 c-10 -10 -21 -13 -29 -8 -12 7 0 14 41 23 2 1 -3 -6 -12 -15z" fill="#0a0903"/>
<path d="M240 10205 c-10 -12 -10 -15 4 -15 9 0 16 7 16 15 0 8 -2 15 -4 15 -2 0 -9 -7 -16 -15z" fill="#0a0903"/>
<path d="M7040 10059 c0 -5 9 -9 20 -9 11 0 20 2 20 4 0 2 -9 6 -20 9 -11 3 -20 1 -20 -4z" fill="#0a0903"/>
<path d="M695 9810 c-16 -7 -17 -9 -3 -9 9 -1 20 4 23 9 7 11 7 11 -20 0z" fill="#0a0903"/>
<path d="M6100 9560 c0 -5 5 -10 11 -10 5 0 7 5 4 10 -3 6 -8 10 -11 10 -2 0 -4 -4 -4 -10z" fill="#0a0903"/>
<path d="M5715 9480 c-3 -5 1 -10 10 -10 9 0 13 5 10 10 -3 6 -8 10 -10 10 -2 0 -7 -4 -10 -10z" fill="#0a0903"/>
<path d="M1210 9460 c0 -5 5 -10 10 -10 6 0 10 5 10 10 0 6 -4 10 -10 10 -5 0 -10 -4 -10 -10z" fill="#0a0903"/>
<path d="M6100 9425 c0 -8 4 -15 10 -15 5 0 7 7 4 15 -4 8 -8 15 -10 15 -2 0 -4 -7 -4 -15z" fill="#0a0903"/>
<path d="M5675 9400 c3 -5 8 -10 11 -10 2 0 4 5 4 10 0 6 -5 10 -11 10 -5 0 -7 -4 -4 -10z" fill="#0a0903"/>
<path d="M6855 9400 c4 -6 11 -8 16 -5 14 9 11 15 -7 15 -8 0 -12 -5 -9 -10z" fill="#0a0903"/>
<path d="M1270 9370 c0 -5 5 -10 10 -10 6 0 10 5 10 10 0 6 -4 10 -10 10 -5 0 -10 -4 -10 -10z" fill="#0a0903"/>
<path d="M5150 9373 c0 -6 -10 -9 -22 -6 -21 4 -21 3 -5 -7 20 -12 48 2 34 17 -4 3 -7 2 -7 -4z" fill="#0a0903"/>
<path d="M5480 9372 c0 -4 5 -13 12 -20 16 -16 28 -15 28 2 0 8 -7 17 -16 20 -21 8 -24 8 -24 -2z" fill="#0a0903"/>
<path d="M5065 9340 c-3 -6 1 -7 9 -4 18 7 21 14 7 14 -6 0 -13 -4 -16 -10z" fill="#0a0903"/>
<path d="M1320 9280 c0 -5 12 -10 28 -10 21 0 24 2 12 10 -20 13 -40 13 -40 0z" fill="#0a0903"/>
<path d="M4735 9260 c-3 -5 -2 -10 4 -10 5 0 13 5 16 10 3 6 2 10 -4 10 -5 0 -13 -4 -16 -10z" fill="#0a0903"/>
<path d="M5075 9260 c-3 -5 -1 -10 4 -10 6 0 11 5 11 10 0 6 -2 10 -4 10 -3 0 -8 -4 -11 -10z" fill="#0a0903"/>
<path d="M4766 9251 c-4 -5 3 -7 14 -4 23 6 26 13 6 13 -8 0 -17 -4 -20 -9z" fill="#0a0903"/>
<path d="M4890 9245 c0 -8 4 -15 10 -15 5 0 7 7 4 15 -4 8 -8 15 -10 15 -2 0 -4 -7 -4 -15z" fill="#0a0903"/>
<path d="M6528 9253 c7 -3 16 -2 19 1 4 3 -2 6 -13 5 -11 0 -14 -3 -6 -6z" fill="#0a0903"/>
<path d="M1395 9240 c-3 -5 -2 -10 4 -10 5 0 13 5 16 10 3 6 2 10 -4 10 -5 0 -13 -4 -16 -10z" fill="#0a0903"/>
<path d="M4168 9143 c6 -2 18 -2 25 0 6 3 1 5 -13 5 -14 0 -19 -2 -12 -5z" fill="#0a0903"/>
<path d="M3785 9059 c-10 -15 3 -25 16 -12 7 7 7 13 1 17 -6 3 -14 1 -17 -5z" fill="#0a0903"/>
<path d="M3965 9060 c-3 -5 -1 -10 4 -10 6 0 11 5 11 10 0 6 -2 10 -4 10 -3 0 -8 -4 -11 -10z" fill="#0a0903"/>
<path d="M3633 9023 c3 -12 0 -24 -7 -27 -6 -2 -3 -5 7 -5 19 -1 22 16 6 39 -9 12 -10 11 -6 -7z" fill="#0a0903"/>
<path d="M3425 9020 c4 -6 11 -8 16 -5 14 9 11 15 -7 15 -8 0 -12 -5 -9 -10z" fill="#0a0903"/>
<path d="M3730 8965 c0 -8 4 -15 9 -15 5 0 11 7 15 15 3 9 0 15 -9 15 -8 0 -15 -7 -15 -15z" fill="#0a0903"/>
<path d="M5223 8965 c-50 -21 -45 -55 10 -77 23 -10 56 -18 74 -18 17 0 44 -5 60 -11 15 -6 55 -15 88 -19 79 -11 151 -27 200 -44 22 -7 76 -24 120 -37 44 -13 82 -27 85 -30 3 -4 19 -11 35 -15 59 -14 379 -182 442 -232 21 -16 65 -44 98 -62 55 -31 124 -81 158 -115 33 -33 92 -65 118 -65 61 0 27 68 -68 138 -28 20 -84 64 -124 98 -74 61 -293 200 -401 255 -32 16 -111 49 -175 74 -65 25 -128 50 -140 55 -81 34 -266 78 -418 100 -44 6 -91 13 -105 15 -14 2 -40 -3 -57 -10z" fill="#0a0903"/>
<path d="M1845 8960 c-16 -4 -55 -8 -86 -9 -55 -1 -132 -20 -196 -47 -17 -8 -44 -14 -61 -14 -37 0 -132 -29 -153 -47 -8 -7 -23 -13 -31 -13 -9 0 -21 -7 -28 -15 -7 -8 -17 -15 -23 -15 -5 0 -16 -8 -23 -17 -13 -17 -13 -17 -14 -1 0 16 -4 16 -57 -3 -78 -29 -165 -68 -183 -85 -8 -7 -51 -31 -95 -54 -93 -48 -201 -122 -340 -234 -125 -101 -135 -111 -135 -140 0 -28 21 -39 53 -27 22 9 224 148 287 199 40 32 118 81 200 125 30 16 72 42 92 58 20 16 45 29 55 29 10 0 29 12 42 26 13 13 29 23 35 21 6 -2 19 9 28 25 10 15 23 28 30 28 6 0 20 8 31 18 22 19 22 20 0 -34 -5 -13 -2 -15 18 -9 13 4 40 15 59 25 19 9 53 20 75 24 64 11 74 16 68 32 -3 7 0 14 7 14 6 0 9 -4 5 -9 -11 -19 12 -19 70 1 33 11 78 21 100 23 53 3 244 43 272 57 25 12 34 38 21 62 -10 17 -67 20 -123 6z m-455 -154 c0 -2 -7 -7 -16 -10 -8 -3 -12 -2 -9 4 6 10 25 14 25 6z m-57 -33 c-7 -2 -19 -2 -25 0 -7 3 -2 5 12 5 14 0 19 -2 13 -5z" fill="#0a0903"/>
<path d="M3500 8962 c-18 -6 -30 -23 -24 -34 3 -4 14 2 25 13 23 23 22 29 -1 21z" fill="#0a0903"/>
<path d="M2920 8870 c0 -5 5 -10 10 -10 6 0 10 5 10 10 0 6 -4 10 -10 10 -5 0 -10 -4 -10 -10z" fill="#0a0903"/>
<path d="M2750 8845 c7 -8 16 -12 21 -9 13 8 1 24 -18 24 -13 0 -13 -3 -3 -15z" fill="#0a0903"/>
<path d="M4051 8794 c0 -11 3 -14 6 -6 3 7 2 16 -1 19 -3 4 -6 -2 -5 -13z" fill="#0a0903"/>
<path d="M627 8753 c-4 -3 -7 -11 -7 -17 0 -6 5 -5 12 2 6 6 9 14 7 17 -3 3 -9 2 -12 -2z" fill="#0a0903"/>
<path d="M3680 8716 c0 -2 9 -6 20 -9 11 -3 20 -1 20 4 0 5 -9 9 -20 9 -11 0 -20 -2 -20 -4z" fill="#0a0903"/>
<path d="M3260 8640 c0 -11 4 -20 9 -20 5 0 7 9 4 20 -3 11 -7 20 -9 20 -2 0 -4 -9 -4 -20z" fill="#0a0903"/>
<path d="M680 8620 c0 -5 5 -10 10 -10 6 0 10 5 10 10 0 6 -4 10 -10 10 -5 0 -10 -4 -10 -10z" fill="#0a0903"/>
<path d="M3395 8620 c-3 -5 -2 -10 4 -10 5 0 12 -8 14 -17 4 -14 5 -13 6 4 1 24 -14 39 -24 23z" fill="#0a0903"/>
<path d="M3160 8550 c0 -6 7 -10 15 -10 8 0 15 2 15 4 0 2 -7 6 -15 10 -8 3 -15 1 -15 -4z" fill="#0a0903"/>
<path d="M1630 8479 c0 -5 5 -7 10 -4 6 3 10 8 10 11 0 2 -4 4 -10 4 -5 0 -10 -5 -10 -11z" fill="#0a0903"/>
<path d="M3571 8344 c0 -11 3 -14 6 -6 3 7 2 16 -1 19 -3 4 -6 -2 -5 -13z" fill="#0a0903"/>
<path d="M3571 8240 c0 -53 3 -79 10 -75 12 8 10 155 -2 155 -4 0 -8 -36 -8 -80z" fill="#0a0903"/>
<path d="M1505 8255 c-96 -15 -156 -31 -210 -55 -22 -10 -51 -21 -65 -24 -14 -3 -47 -21 -75 -40 -27 -19 -74 -48 -103 -65 -56 -33 -232 -201 -232 -221 0 -6 -20 -38 -45 -70 -25 -32 -45 -63 -45 -69 0 -6 -8 -15 -18 -20 -10 -5 -32 -29 -48 -53 -16 -24 -31 -45 -34 -48 -3 -3 -25 -35 -48 -72 -34 -54 -41 -75 -40 -113 0 -37 -5 -52 -26 -74 -28 -30 -69 -102 -61 -109 3 -3 -1 -10 -9 -16 -18 -15 -60 -132 -53 -150 4 -9 2 -18 -3 -21 -6 -4 -10 -17 -10 -31 0 -14 -7 -41 -16 -62 -23 -55 -43 -172 -30 -172 6 0 3 -7 -7 -14 -19 -14 -23 -36 -7 -36 6 0 5 -12 -4 -28 -8 -15 -22 -89 -32 -164 -15 -118 -16 -143 -4 -180 9 -28 14 -106 16 -227 2 -157 5 -185 18 -193 20 -11 21 -42 1 -58 -11 -9 -13 -27 -10 -69 6 -69 24 -149 36 -157 5 -3 9 -23 9 -45 0 -22 7 -56 15 -77 9 -20 15 -46 14 -57 -1 -11 6 -37 15 -57 9 -21 16 -44 16 -53 0 -8 9 -24 20 -35 11 -11 19 -23 19 -28 -4 -24 4 -44 31 -72 20 -21 28 -39 25 -50 -5 -15 -1 -18 20 -15 16 1 23 -1 17 -7 -13 -13 10 -79 25 -73 7 2 13 -2 13 -10 0 -8 -7 -15 -15 -15 -8 0 -15 -5 -15 -11 0 -6 7 -8 15 -5 9 3 18 -1 21 -9 4 -8 11 -12 17 -8 6 4 8 0 4 -9 -7 -19 49 -138 64 -138 6 0 9 -7 5 -15 -3 -8 -1 -15 4 -15 6 0 10 -5 10 -12 0 -13 68 -78 81 -78 5 0 8 -3 8 -7 -5 -30 5 -50 31 -65 17 -9 35 -29 40 -44 6 -16 16 -24 24 -21 17 7 36 -11 30 -28 -3 -7 8 -19 25 -26 17 -8 31 -19 31 -24 0 -11 60 -51 71 -48 4 1 17 -9 29 -22 13 -14 32 -25 42 -25 10 0 21 -6 24 -14 3 -8 12 -12 21 -9 8 3 19 0 23 -7 10 -16 109 -50 127 -43 7 3 13 9 13 15 0 11 25 38 35 38 3 0 4 -4 1 -9 -3 -4 10 -6 29 -4 20 2 35 -1 35 -7 0 -5 -4 -10 -9 -10 -5 0 -12 -10 -14 -22 l-4 -23 -8 22 c-4 13 -12 23 -17 23 -5 0 -6 -4 -3 -10 3 -5 -2 -10 -11 -10 -14 0 -15 -3 -6 -12 12 -12 21 -14 77 -23 17 -2 47 -7 68 -10 24 -4 37 -3 37 4 0 6 10 10 23 8 12 -1 21 3 20 9 -3 15 35 25 43 12 4 -6 1 -14 -6 -18 -10 -6 -9 -9 1 -12 8 -3 22 6 32 19 10 12 24 22 30 20 7 -1 12 7 12 18 0 13 -6 20 -17 19 -9 -1 -14 4 -12 11 3 7 0 16 -5 20 -6 3 -9 10 -6 15 4 6 -34 7 -92 3 -96 -6 -121 -11 -95 -20 6 -3 12 -8 12 -13 0 -13 -62 -1 -80 15 -11 10 -29 14 -53 11 -34 -5 -37 -3 -37 21 0 18 -4 24 -14 20 -8 -3 -16 -3 -18 1 -2 4 -28 18 -58 32 -57 26 -157 89 -198 127 -78 70 -154 147 -176 179 -18 26 -96 142 -131 194 -5 9 -19 30 -30 48 -20 32 -35 41 -35 22 0 -5 -4 -10 -8 -10 -4 0 -6 15 -4 34 3 27 -3 45 -28 80 -18 24 -29 49 -26 55 4 6 0 21 -8 33 -9 12 -16 40 -16 60 0 31 -5 41 -25 50 -27 12 -32 24 -12 31 6 2 9 8 4 12 -4 5 -13 0 -21 -10 -7 -10 -18 -15 -24 -11 -15 9 -16 26 -1 26 5 0 7 -5 3 -12 -4 -6 -3 -8 3 -5 6 4 9 19 7 34 -1 15 1 32 6 38 10 12 7 42 -10 120 -6 28 -15 73 -20 101 -4 29 -10 60 -13 70 -3 11 -8 55 -12 99 -3 44 -10 125 -15 180 -14 155 -16 295 -2 304 6 4 8 12 2 20 -4 8 -6 20 -3 27 2 7 -1 22 -7 34 -10 18 -9 24 1 31 11 6 15 45 18 151 2 100 7 148 17 162 7 11 11 29 8 41 -4 15 0 24 11 29 11 4 15 12 11 22 -4 9 -2 22 3 28 4 6 11 31 15 56 4 25 13 58 21 74 8 16 15 46 15 67 0 39 40 140 67 171 9 10 13 24 10 32 -3 8 1 20 9 26 8 7 14 21 14 31 0 11 5 18 12 16 6 -1 14 7 17 18 3 11 13 31 22 45 9 14 40 66 70 115 29 50 84 128 122 174 38 47 71 91 74 98 9 23 226 184 295 219 38 19 110 49 161 66 83 29 103 32 212 32 66 0 145 -6 175 -13 47 -12 235 -97 295 -135 26 -16 99 -83 133 -121 15 -16 51 -53 80 -81 28 -28 52 -58 52 -67 0 -9 9 -21 20 -27 11 -6 20 -17 20 -24 0 -16 97 -208 109 -216 11 -7 52 -95 50 -106 -4 -15 13 -67 33 -104 10 -19 18 -43 18 -53 0 -10 5 -27 11 -38 15 -29 40 -129 34 -139 -5 -8 11 -114 22 -140 3 -8 5 -24 4 -34 -2 -14 1 -17 15 -12 10 4 15 4 11 0 -4 -4 -2 -13 4 -20 12 -15 15 -136 4 -154 -4 -7 -1 -16 6 -21 11 -7 12 -12 2 -27 -9 -15 -9 -22 0 -31 8 -8 8 -11 -1 -11 -7 0 -12 -9 -12 -20 0 -11 5 -20 10 -20 7 0 7 -7 2 -17 -4 -10 -7 -47 -5 -83 5 -123 5 -205 -1 -250 -4 -25 -8 -64 -11 -88 -2 -24 -7 -47 -9 -51 -3 -4 -8 -30 -11 -57 -4 -27 -11 -66 -16 -87 -11 -42 -4 -77 14 -77 7 0 3 -7 -7 -15 -16 -12 -17 -15 -4 -15 8 0 21 -6 27 -14 10 -12 8 -17 -10 -26 -17 -10 -19 -14 -8 -21 11 -7 11 -9 -3 -9 -11 0 -15 -5 -12 -14 6 -15 44 -10 44 6 0 5 10 19 23 31 24 24 33 47 17 47 -7 0 -7 7 1 21 6 13 7 19 1 15 -7 -4 -6 5 1 23 6 17 14 28 19 25 4 -3 5 2 1 11 -3 10 0 21 8 26 10 6 10 9 2 9 -12 0 -11 53 2 120 2 14 7 53 10 88 4 35 9 73 11 85 9 37 10 62 3 67 -3 3 -3 34 2 70 4 36 5 101 2 145 -3 44 -5 95 -5 113 1 18 -4 35 -11 38 -9 3 -12 47 -12 155 0 132 -2 153 -17 163 -11 8 -16 21 -13 35 3 18 -3 25 -28 36 -24 11 -27 14 -12 15 23 0 30 40 7 40 -7 0 -10 5 -7 10 3 6 -2 10 -11 10 -16 0 -16 1 1 14 19 14 19 15 -5 35 l-25 20 27 1 c23 0 26 3 23 28 -3 26 -42 133 -97 267 -78 192 -256 432 -429 579 -72 61 -225 144 -288 156 -31 6 -86 18 -123 27 -38 9 -88 13 -113 11 -25 -3 -48 -2 -51 3 -3 5 -8 8 -12 8 -4 -1 -43 -7 -87 -14z m660 -245 c-3 -5 -10 -10 -16 -10 -5 0 -9 5 -9 10 0 6 7 10 16 10 8 0 12 -4 9 -10z m-1335 -260 c0 -5 -5 -10 -11 -10 -5 0 -7 5 -4 10 3 6 8 10 11 10 2 0 4 -4 4 -10z m-240 -2630 c0 -5 -5 -10 -11 -10 -5 0 -7 5 -4 10 3 6 8 10 11 10 2 0 4 -4 4 -10z m33 -71 c3 -13 1 -19 -6 -16 -15 5 -22 37 -9 37 5 0 12 -9 15 -21z m137 -269 c-1 -12 -3 -12 -14 3 -7 9 -19 17 -25 17 -7 0 -9 4 -6 10 8 13 45 -11 45 -30z m358 -305 c-3 -3 -9 2 -12 12 -6 14 -5 15 5 6 7 -7 10 -15 7 -18z m37 -35 c3 -5 1 -10 -4 -10 -6 0 -11 5 -11 10 0 6 2 10 4 10 3 0 8 -4 11 -10z" fill="#0a0903"/>
<path d="M5380 8251 c-14 -4 -24 -14 -22 -21 2 -9 -5 -11 -25 -7 -19 4 -49 -5 -93 -25 -102 -48 -108 -51 -127 -52 -31 -3 -80 -34 -103 -66 -12 -17 -40 -39 -63 -49 -47 -21 -161 -148 -244 -269 -30 -43 -161 -313 -169 -349 -4 -15 -11 -34 -17 -40 -7 -9 -5 -13 7 -13 21 0 20 -9 -1 -26 -17 -12 -16 -13 7 -15 l25 -1 -25 -8 c-22 -6 -23 -8 -7 -15 9 -4 17 -13 17 -21 0 -12 -4 -12 -20 -2 -11 7 -21 19 -23 28 -6 24 -25 -30 -30 -86 -2 -27 -10 -62 -16 -79 -7 -16 -10 -40 -8 -52 2 -12 -1 -24 -8 -27 -7 -2 -17 -33 -24 -68 -23 -124 -41 -233 -41 -258 0 -14 -2 -79 -4 -145 -1 -66 0 -124 2 -129 3 -6 7 -57 8 -115 1 -58 6 -127 11 -152 6 -26 8 -61 7 -78 -2 -16 1 -42 6 -56 7 -17 6 -25 -1 -25 -8 0 -8 -4 -1 -12 6 -7 11 -35 13 -63 2 -27 8 -53 13 -57 7 -5 7 -8 -1 -8 -7 0 -10 -6 -7 -14 3 -8 12 -12 19 -10 8 4 13 -3 12 -18 0 -13 4 -32 8 -42 7 -16 5 -18 -9 -13 -15 6 -17 4 -11 -15 4 -13 6 -33 6 -45 0 -13 3 -23 7 -23 4 0 9 -12 10 -27 4 -50 43 -161 58 -167 9 -3 14 -12 11 -19 -2 -6 3 -17 12 -24 14 -11 14 -12 -1 -13 -22 0 -23 -14 -2 -45 9 -14 14 -32 10 -40 -4 -11 1 -14 17 -11 12 2 29 -1 37 -8 8 -6 6 -1 -4 12 -13 15 -15 22 -6 22 10 0 10 3 1 14 -10 12 -9 20 4 40 11 17 14 33 9 48 -4 13 -9 28 -10 33 -1 6 -14 57 -28 115 -39 161 -64 288 -71 360 -8 90 -16 124 -29 132 -8 5 -7 8 2 8 11 0 12 12 7 52 -17 119 -4 503 21 620 7 33 -3 53 -19 40 -18 -14 -64 -20 -79 -11 -9 6 -3 12 20 20 31 11 36 24 9 24 -15 0 -16 27 -1 32 6 2 21 -6 34 -17 40 -35 64 14 28 57 -11 14 -10 15 12 8 22 -7 23 -6 12 8 -8 9 -11 20 -8 25 3 6 0 30 -8 55 -8 28 -10 50 -4 61 5 10 5 24 -2 37 -10 18 -9 20 6 17 26 -5 36 -44 16 -64 -12 -13 -13 -19 -4 -22 7 -2 10 -13 6 -27 -3 -12 -1 -26 5 -29 6 -4 14 11 20 36 6 24 20 70 31 103 25 76 26 95 0 95 -26 0 -26 16 0 23 13 3 18 1 14 -6 -3 -7 4 -1 15 12 22 25 20 44 -4 34 -8 -3 -15 0 -15 6 0 6 -7 11 -16 11 -8 0 -12 5 -9 10 3 6 17 10 31 10 13 0 24 -4 24 -10 0 -26 19 -5 35 38 49 131 189 364 285 471 16 19 30 38 30 43 0 4 4 8 8 8 16 0 92 64 92 77 0 7 7 13 16 13 8 0 34 13 57 29 59 40 173 88 253 107 201 46 453 -5 639 -128 61 -42 317 -292 321 -316 4 -20 33 -62 44 -62 5 0 19 -19 31 -42 12 -24 30 -49 40 -56 10 -7 24 -32 30 -55 12 -46 57 -154 95 -229 13 -26 24 -56 24 -65 0 -10 13 -58 29 -108 30 -91 74 -280 86 -367 3 -26 10 -50 15 -53 4 -3 6 -23 3 -45 -5 -37 -2 -43 41 -86 38 -37 50 -43 61 -34 9 8 13 25 10 48 -2 21 -7 79 -10 131 -6 99 -24 188 -56 285 -11 32 -18 61 -15 64 3 2 -3 17 -14 32 -13 18 -20 44 -20 75 0 32 -8 60 -27 92 -15 25 -28 60 -30 77 -2 16 -14 42 -27 56 -14 14 -28 42 -31 63 -5 25 -13 37 -24 37 -11 0 -12 3 -4 8 26 16 -63 153 -117 179 -19 9 -21 12 -7 12 15 1 16 4 7 22 -7 11 -17 18 -25 15 -20 -7 -62 41 -47 56 8 8 -2 24 -41 60 -29 28 -46 47 -39 43 17 -9 15 13 -3 31 -13 14 -15 13 -16 -3 0 -12 -5 -9 -14 12 -7 17 -23 32 -36 36 -13 3 -23 11 -21 18 1 7 -7 15 -18 18 -12 3 -19 11 -16 18 6 17 -51 70 -95 88 -19 8 -60 33 -90 56 -29 23 -65 44 -79 47 -14 4 -35 13 -47 20 -30 19 -105 44 -114 38 -4 -2 -27 2 -51 10 -62 20 -145 29 -153 16 -5 -8 -11 -8 -20 0 -8 7 -21 7 -39 0 -17 -6 -35 -6 -52 0 -29 11 -48 11 -84 1z m80 -17 c0 -2 -13 -4 -30 -4 -16 0 -30 4 -30 8 0 5 14 7 30 4 17 -2 30 -6 30 -8z m929 -539 c0 -5 -6 -1 -14 9 -8 11 -15 24 -15 30 0 5 7 1 15 -10 8 -10 14 -23 14 -29z m-1872 -473 c4 -30 -9 -43 -22 -22 -3 6 -1 10 6 10 8 0 6 6 -4 18 -22 24 -21 34 0 30 10 -2 18 -15 20 -36z m-42 -202 c3 -5 2 -10 -4 -10 -5 0 -13 5 -16 10 -3 6 -2 10 4 10 5 0 13 -4 16 -10z m-48 -756 c-3 -3 -12 -4 -19 -1 -8 3 -5 6 6 6 11 1 17 -2 13 -5z m68 -474 c3 -5 -1 -10 -9 -10 -9 0 -16 5 -16 10 0 6 4 10 9 10 6 0 13 -4 16 -10z m5 -54 c0 -11 -19 -15 -25 -6 -3 5 1 10 9 10 9 0 16 -2 16 -4z m35 -176 c3 -5 1 -10 -4 -10 -6 0 -11 5 -11 10 0 6 2 10 4 10 3 0 8 -4 11 -10z m42 -112 c-3 -8 -6 -5 -6 6 -1 11 2 17 5 13 3 -3 4 -12 1 -19z" fill="#0a0903"/>
<path d="M3570 8110 c0 -5 5 -10 10 -10 6 0 10 5 10 10 0 6 -4 10 -10 10 -5 0 -10 -4 -10 -10z" fill="#0a0903"/>
<path d="M3572 8045 c0 -19 4 -38 9 -41 5 -3 9 11 9 30 0 19 -4 37 -9 40 -5 3 -9 -10 -9 -29z" fill="#0a0903"/>
<path d="M4398 8003 c7 -3 16 -2 19 1 4 3 -2 6 -13 5 -11 0 -14 -3 -6 -6z" fill="#0a0903"/>
<path d="M1520 7380 c0 -5 -8 -10 -17 -10 -41 -2 -127 -49 -188 -104 -126 -112 -227 -312 -289 -566 -25 -106 -46 -279 -45 -380 0 -76 26 -304 44 -392 47 -225 158 -444 262 -518 26 -19 50 -38 53 -42 13 -17 128 -48 183 -48 72 0 149 35 204 93 l38 41 -50 -41 c-50 -40 -87 -63 -101 -63 -4 0 12 13 37 28 24 16 73 60 109 98 63 67 114 158 223 394 44 95 71 286 70 500 0 311 -33 489 -124 679 -44 92 -68 128 -154 229 -11 13 -33 31 -50 39 -16 9 -34 22 -40 29 -11 16 -120 38 -135 29 -6 -3 -10 -1 -10 4 0 6 -4 11 -10 11 -5 0 -10 -4 -10 -10z m-327 -935 c-3 -9 -8 -14 -10 -11 -3 3 -2 9 2 15 9 16 15 13 8 -4z" fill="#0a0903"/>
<path d="M5482 7338 c-49 -23 -79 -48 -134 -111 -117 -133 -183 -301 -223 -574 -23 -154 -20 -455 4 -582 23 -115 71 -271 108 -350 42 -91 143 -230 209 -289 35 -31 60 -60 57 -66 -3 -5 -1 -6 5 -3 15 10 43 -3 35 -16 -3 -6 -1 -7 6 -3 6 4 21 4 32 1 17 -6 19 -9 8 -16 -9 -5 14 -9 61 -9 52 0 70 3 60 10 -12 7 -8 10 15 10 73 0 178 85 259 209 71 109 106 188 135 311 42 176 54 272 55 440 1 202 -6 266 -44 415 -66 255 -160 439 -280 546 -127 114 -241 138 -368 77z m-32 -783 c-13 -14 -26 -23 -28 -20 -7 7 29 45 41 45 6 0 0 -11 -13 -25z m-84 -112 c-8 -15 -15 -25 -16 -21 0 12 23 58 27 54 3 -2 -2 -17 -11 -33z m-15 -149 c5 -40 18 -81 29 -96 11 -15 20 -32 20 -37 0 -6 25 -30 56 -53 31 -24 67 -51 80 -61 63 -49 241 -41 310 14 45 36 70 38 29 3 -45 -38 -133 -77 -187 -82 -64 -6 -216 42 -264 83 -45 39 -94 171 -94 253 0 72 9 62 21 -24z m609 -124 c-6 -11 -13 -20 -16 -20 -2 0 0 9 6 20 6 11 13 20 16 20 2 0 0 -9 -6 -20z" fill="#0a0903"/>
<path d="M3582 7310 c0 -19 2 -27 5 -17 2 9 2 25 0 35 -3 9 -5 1 -5 -18z" fill="#0a0903"/>
<path d="M3582 7145 c0 -16 2 -22 5 -12 2 9 2 23 0 30 -3 6 -5 -1 -5 -18z" fill="#0a0903"/>
<path d="M3582 7030 c0 -19 2 -27 5 -17 2 9 2 25 0 35 -3 9 -5 1 -5 -18z" fill="#0a0903"/>
<path d="M3583 6920 c0 -41 2 -58 4 -37 2 20 2 54 0 75 -2 20 -4 3 -4 -38z" fill="#0a0903"/>
<path d="M3582 6805 c0 -16 2 -22 5 -12 2 9 2 23 0 30 -3 6 -5 -1 -5 -18z" fill="#0a0903"/>
<path d="M3580 6660 c0 -62 2 -111 5 -108 8 7 7 209 0 216 -3 3 -5 -46 -5 -108z" fill="#0a0903"/>
<path d="M3525 6610 c-3 -5 -1 -10 4 -10 6 0 11 5 11 10 0 6 -2 10 -4 10 -3 0 -8 -4 -11 -10z" fill="#0a0903"/>
<path d="M3578 6518 c0 -13 -1 -31 0 -40 1 -10 -3 -18 -9 -18 -8 0 -8 -4 -1 -13 7 -8 13 -70 15 -148 2 -119 3 -113 5 54 1 103 0 187 -3 187 -3 0 -6 -10 -7 -22z" fill="#0a0903"/>
<path d="M6771 6513 c-2 -23 11 -42 25 -36 18 7 18 23 0 23 -8 0 -17 6 -19 13 -4 8 -6 8 -6 0z" fill="#0a0903"/>
<path d="M6835 6460 c3 -5 8 -10 11 -10 2 0 4 5 4 10 0 6 -5 10 -11 10 -5 0 -7 -4 -4 -10z" fill="#0a0903"/>
<path d="M6773 6453 c-21 -8 -15 -71 7 -93 24 -24 29 -60 6 -41 -21 18 -25 4 -25 -109 0 -108 -14 -286 -32 -400 -20 -136 -60 -326 -73 -350 -7 -14 -21 -50 -31 -80 -31 -95 -110 -272 -160 -355 -104 -176 -198 -289 -331 -396 -71 -58 -233 -149 -264 -149 -6 0 -9 -4 -6 -8 3 -5 -8 -6 -25 -4 -17 3 -29 0 -29 -7 0 -6 -10 -12 -22 -12 -17 -1 -19 -2 -5 -6 9 -2 17 -8 17 -13 0 -10 -94 0 -98 11 -2 5 -29 9 -60 8 -48 0 -54 -2 -34 -11 12 -6 22 -14 22 -18 0 -10 -31 -22 -38 -15 -3 3 1 5 9 6 8 0 3 4 -9 10 -25 10 -42 5 -42 -12 0 -6 4 -8 9 -5 5 3 11 -1 14 -8 4 -10 16 -13 36 -11 17 2 31 0 31 -5 0 -6 -6 -10 -14 -10 -8 0 -16 -7 -20 -15 -4 -10 1 -15 17 -16 42 -2 72 3 86 14 12 9 13 9 7 0 -4 -8 -1 -13 8 -13 9 0 13 6 10 14 -3 7 2 16 10 19 21 8 20 27 -1 27 -9 0 -14 2 -11 5 3 3 23 1 44 -4 21 -5 33 -9 27 -10 -7 -1 -13 -6 -13 -12 0 -15 127 -6 142 9 6 6 17 8 24 5 7 -3 51 16 96 41 103 57 122 71 113 86 -5 9 -1 10 15 5 15 -5 20 -3 16 3 -3 6 3 14 15 17 45 15 141 109 132 131 -3 10 0 12 10 8 16 -6 57 31 57 52 0 7 4 14 9 16 11 4 101 135 101 147 0 5 7 14 15 21 17 14 21 45 4 34 -13 -8 19 44 41 66 38 39 170 332 170 378 0 11 4 23 9 27 9 5 17 43 25 122 2 18 8 38 14 45 18 24 57 262 56 351 0 26 2 47 6 47 10 0 10 245 0 279 -5 18 -4 33 3 40 7 7 7 14 -1 24 -9 10 -9 16 0 25 9 9 8 18 -2 39 -29 58 -50 71 -87 56z m-223 -1393 c0 -5 -2 -10 -4 -10 -3 0 -8 5 -11 10 -3 6 -1 10 4 10 6 0 11 -4 11 -10z m-354 -507 c-10 -10 -19 5 -10 18 6 11 8 11 12 0 2 -7 1 -15 -2 -18z" fill="#0a0903"/>
<path d="M3584 5915 c0 -115 2 -161 3 -102 2 59 2 154 0 210 -1 56 -3 8 -3 -108z" fill="#0a0903"/>
<path d="M90 5839 c0 -5 5 -7 10 -4 6 3 10 8 10 11 0 2 -4 4 -10 4 -5 0 -10 -5 -10 -11z" fill="#0a0903"/>
<path d="M2644 5776 c-10 -8 -17 -17 -14 -19 3 -3 14 1 24 9 11 7 17 16 15 19 -3 3 -14 -2 -25 -9z" fill="#0a0903"/>
<path d="M2700 5719 c0 -5 5 -7 10 -4 6 3 10 8 10 11 0 2 -4 4 -10 4 -5 0 -10 -5 -10 -11z" fill="#0a0903"/>
<path d="M2606 5656 c-3 -12 0 -25 8 -31 7 -5 18 -20 25 -32 6 -13 16 -23 22 -23 6 0 5 8 -2 21 -8 15 -8 19 0 15 7 -5 11 4 11 23 0 17 5 31 10 31 6 0 10 3 10 8 0 4 -18 8 -39 8 -32 2 -40 -2 -45 -20z" fill="#0a0903"/>
<path d="M3576 5098 c-4 -321 -9 -595 -12 -610 -4 -15 -14 -29 -23 -31 -10 -3 -8 -5 7 -6 22 -1 23 -3 18 -71 -5 -74 -10 -90 -29 -89 -9 0 -9 2 1 6 29 12 7 18 -61 16 -39 -1 -76 -2 -81 -2 -5 -1 -3 -7 4 -15 9 -12 8 -15 -9 -13 -11 0 -17 5 -15 9 10 15 -9 8 -21 -8 -9 -14 -16 -14 -33 -5 -13 7 -26 10 -31 7 -4 -3 -32 -8 -62 -11 -29 -3 -56 -10 -60 -16 -4 -6 -16 -8 -28 -4 -11 3 -21 2 -21 -3 0 -17 -74 -32 -108 -23 -33 10 -46 -2 -16 -13 12 -5 -10 -20 -72 -53 -140 -72 -176 -93 -214 -119 -33 -24 -35 -24 -49 -7 -13 17 -13 16 -8 -5 7 -32 -29 -51 -48 -25 -13 16 -14 15 -12 -12 2 -27 -1 -30 -28 -28 -16 1 -22 -1 -12 -4 18 -5 18 -6 1 -24 -9 -10 -23 -19 -31 -19 -7 0 -13 -7 -13 -16 0 -10 -6 -14 -14 -11 -9 4 -13 1 -11 -6 3 -7 -9 -28 -25 -47 -16 -19 -34 -40 -39 -46 -5 -6 -19 -40 -32 -75 -13 -35 -27 -66 -31 -67 -5 -2 -6 -8 -2 -13 3 -5 -2 -9 -10 -9 -10 0 -13 -6 -9 -16 4 -12 0 -15 -18 -12 -15 2 -23 -2 -21 -9 1 -7 -4 -13 -12 -13 -9 0 -12 -7 -9 -20 4 -13 0 -20 -9 -20 -8 0 -26 -18 -40 -39 -20 -31 -23 -41 -12 -45 8 -3 14 1 14 9 0 8 5 15 11 15 6 0 9 -7 6 -15 -4 -8 -2 -17 3 -20 13 -8 13 -35 0 -35 -5 0 -10 7 -10 15 0 8 -5 15 -11 15 -6 0 -9 -6 -6 -14 4 -9 -3 -17 -16 -21 l-22 -6 24 -12 c19 -9 25 -9 29 1 5 17 22 15 22 -3 0 -9 -7 -18 -15 -21 -19 -8 -20 -44 0 -44 9 0 14 -8 12 -22 -1 -18 3 -23 21 -22 16 0 22 -5 22 -22 0 -12 -3 -24 -7 -27 -5 -2 -2 -2 5 -1 7 2 12 -7 12 -21 0 -14 5 -25 11 -25 6 0 9 7 5 15 -3 8 -1 15 4 15 6 0 10 -8 10 -17 0 -9 7 -25 17 -35 9 -10 11 -18 5 -18 -6 0 -15 8 -21 17 -7 13 -12 15 -23 5 -11 -8 -18 -8 -25 -1 -18 18 -31 2 -35 -41 -3 -29 0 -40 11 -40 10 0 12 9 7 42 l-7 43 21 -22 c11 -13 30 -32 43 -44 21 -20 21 -21 2 -19 -49 5 -54 -6 -30 -64 5 -12 5 -17 -1 -13 -6 3 -16 2 -24 -3 -12 -7 -11 -13 8 -33 25 -27 27 -36 10 -72 -8 -18 -14 -22 -19 -13 -6 9 -11 10 -19 2 -13 -13 -2 -44 16 -44 17 0 17 -9 4 -47 l-10 -28 23 28 c12 15 29 27 36 27 9 0 8 -4 -3 -16 -18 -18 -21 -34 -6 -34 6 0 10 7 10 16 0 8 4 13 9 10 5 -3 7 -14 5 -24 -2 -9 0 -24 5 -32 9 -13 12 -13 23 -1 10 11 10 14 0 18 -6 3 -9 9 -6 15 4 5 16 0 30 -13 21 -19 24 -20 30 -5 10 26 22 19 16 -11 -4 -21 -2 -25 11 -20 11 4 17 -1 19 -15 2 -12 9 -23 16 -24 7 -1 8 0 2 3 -5 2 -10 11 -10 20 0 10 6 12 20 8 15 -5 20 -2 20 13 0 15 5 19 20 15 11 -3 18 -9 15 -13 -9 -14 16 -23 28 -11 14 14 27 14 27 1 0 -5 -7 -10 -15 -10 -13 0 -14 -4 -4 -21 8 -15 8 -24 0 -32 -6 -6 -11 -20 -11 -31 0 -20 1 -20 18 2 10 13 21 19 26 15 4 -4 11 -8 15 -8 4 0 15 -8 25 -18 10 -10 26 -15 36 -12 22 7 35 -22 19 -42 -17 -20 -7 -24 23 -9 26 14 38 12 38 -6 0 -4 -10 -8 -22 -8 -16 0 -19 -3 -11 -11 9 -9 20 -9 44 0 42 14 50 14 43 -3 -6 -17 25 -29 50 -20 9 3 16 1 16 -5 0 -6 -7 -11 -15 -11 -17 0 -20 -16 -5 -25 6 -3 10 -24 10 -46 0 -24 -4 -38 -10 -34 -5 3 -10 2 -10 -4 0 -6 11 -13 25 -17 14 -3 25 -10 25 -15 0 -5 5 -9 10 -9 6 0 10 7 10 15 0 9 -10 15 -26 15 -18 0 -23 4 -17 12 4 7 8 22 8 33 0 14 6 19 18 17 9 -2 20 4 23 12 5 14 10 13 32 -4 15 -12 33 -18 44 -15 13 5 16 2 12 -9 -7 -17 -54 -22 -54 -6 0 6 -7 10 -16 10 -13 0 -14 -3 -4 -15 7 -8 10 -22 6 -30 -3 -9 1 -18 9 -21 23 -9 18 -25 -7 -22 -13 2 -24 -1 -25 -6 -1 -5 -6 -12 -12 -16 -15 -8 -2 -42 13 -37 6 3 10 11 8 18 -2 8 0 11 3 7 4 -4 17 -1 27 7 11 7 27 11 35 8 8 -3 20 3 27 12 8 12 19 16 30 12 14 -5 17 -2 14 16 -2 18 2 22 27 24 29 2 29 2 5 -7 -14 -4 -19 -8 -12 -9 22 -2 44 -30 40 -53 -3 -21 -40 -48 -87 -63 -16 -5 -21 -4 -17 4 5 8 0 8 -18 -1 -34 -15 -33 -25 3 -30 17 -3 29 0 28 6 -1 6 11 11 27 11 16 1 31 6 34 13 4 14 32 16 32 3 0 -5 -9 -11 -21 -14 -13 -4 -18 -10 -13 -18 5 -9 1 -11 -14 -7 -12 4 -25 2 -28 -3 -3 -5 5 -10 18 -10 13 -1 30 -2 38 -3 26 -2 39 20 34 59 -4 33 -3 36 11 25 12 -10 18 -10 33 1 14 11 15 11 5 0 -6 -7 -9 -20 -6 -29 4 -10 2 -13 -5 -8 -9 5 -9 0 -2 -19 12 -31 12 -38 3 -32 -5 3 -9 -6 -9 -19 -2 -18 3 -24 20 -24 30 1 58 24 50 44 -4 11 -1 16 11 16 14 0 15 3 5 14 -6 8 -17 13 -24 10 -7 -3 -12 4 -12 16 0 26 22 26 38 0 7 -11 16 -20 21 -20 4 0 5 5 2 10 -12 19 9 10 39 -17 17 -16 28 -24 24 -19 -8 9 41 40 49 32 3 -2 -5 -9 -16 -16 -27 -14 -27 -30 -1 -30 11 0 20 -4 20 -10 0 -5 -8 -10 -17 -10 -16 -1 -16 -2 1 -11 10 -6 21 -7 25 -3 3 5 12 9 20 9 8 0 16 7 18 15 4 13 3 13 -6 0 -9 -13 -12 -13 -23 -1 -11 12 -10 12 2 6 13 -7 13 -6 2 7 -10 13 -10 17 3 22 8 3 15 2 15 -3 0 -12 49 -20 56 -10 3 5 -6 14 -20 21 -14 6 -26 16 -26 21 0 5 7 4 16 -4 13 -10 17 -10 24 1 5 8 11 12 13 10 9 -9 12 -158 4 -153 -5 3 -5 -3 0 -13 11 -21 10 -64 -1 -82 -4 -7 -4 -17 -1 -23 4 -6 -1 -16 -11 -23 -10 -8 -15 -20 -11 -30 7 -17 2 -18 -63 -18 -46 0 -47 2 -15 17 28 13 28 14 4 9 -23 -5 -27 -2 -33 27 -5 26 -9 30 -19 20 -9 -9 -9 -14 2 -20 24 -15 9 -46 -24 -48 -20 -1 -23 0 -7 4 36 7 25 23 -17 23 -45 0 -89 20 -83 38 2 6 -1 12 -7 12 -6 0 -11 -5 -11 -11 0 -8 -5 -7 -16 2 -8 7 -13 20 -11 30 3 11 -2 19 -13 22 -13 3 -17 0 -13 -10 7 -17 -13 -33 -39 -33 -12 0 -18 8 -18 23 0 24 -40 58 -40 35 0 -7 -9 -2 -20 12 -14 18 -20 20 -20 10 0 -9 4 -20 9 -25 5 -6 11 -21 13 -35 2 -19 8 -24 25 -23 25 3 48 -21 39 -42 -3 -8 -16 -15 -28 -14 -22 1 -22 1 2 8 l25 7 -30 6 c-17 4 -36 1 -43 -5 -11 -8 -16 -7 -24 7 -8 15 -12 16 -20 5 -7 -11 -11 -11 -15 -1 -2 6 -12 12 -22 12 -9 0 -22 5 -29 12 -9 9 -12 8 -12 -4 0 -23 -29 -31 -47 -12 -9 8 -22 13 -29 10 -8 -3 -14 1 -14 9 0 8 -5 15 -11 15 -5 0 -7 -5 -4 -10 3 -5 2 -10 -4 -10 -5 0 -12 9 -16 19 -6 21 -27 19 -55 -5 -12 -10 -19 -10 -34 2 -11 8 -29 14 -39 14 -16 0 -17 -3 -7 -15 7 -9 8 -15 2 -15 -5 0 -13 7 -16 16 -5 13 -9 14 -20 5 -10 -8 -16 -9 -21 -1 -8 13 -45 13 -45 0 0 -5 -5 -10 -11 -10 -6 0 -8 7 -5 15 3 8 9 23 12 33 5 16 5 16 -9 0 -19 -24 -44 -23 -59 2 -7 11 -21 20 -32 20 -16 0 -17 -2 -5 -17 13 -15 10 -16 -33 -10 -37 5 -48 3 -48 -7 0 -10 -9 -12 -32 -7 -26 5 -34 13 -39 36 -6 25 -14 17 -10 -9 1 -5 -26 -6 -59 -4 -49 3 -60 2 -55 -9 4 -11 -5 -13 -43 -8 -26 4 -60 10 -77 15 -16 5 -49 12 -73 15 -31 5 -42 11 -38 21 7 18 -30 39 -40 22 -4 -6 -3 -8 3 -5 6 4 13 0 17 -8 6 -16 -5 -18 -41 -9 -13 4 -20 10 -17 15 3 5 1 9 -5 9 -5 0 -13 -4 -16 -10 -11 -17 -37 -11 -42 10 -6 23 -14 25 -31 8 -10 -10 -14 -8 -19 11 -4 17 -8 19 -14 9 -7 -10 -11 -10 -17 -1 -4 7 -27 15 -50 19 -35 5 -42 4 -42 -10 0 -19 -18 -20 -91 -5 -30 6 -61 12 -69 14 -8 1 -31 5 -50 9 -42 9 -73 14 -82 15 -4 1 -5 8 -2 16 4 10 -3 18 -21 25 -37 14 -48 13 -41 -6 5 -14 1 -15 -26 -9 -18 4 -70 12 -115 19 -46 7 -89 19 -97 25 -8 7 -20 10 -25 6 -6 -3 -21 1 -35 10 -14 10 -33 14 -48 10 -30 -8 -101 4 -316 52 -123 28 -165 41 -173 55 -11 20 -35 24 -41 6 -3 -8 -9 -8 -24 0 -19 11 -19 11 1 12 17 1 17 3 -5 11 -17 7 -31 6 -47 -2 -17 -9 -26 -10 -34 -2 -6 6 -17 9 -25 6 -18 -6 -86 16 -79 27 3 4 -4 6 -15 3 -11 -3 -20 0 -20 6 0 6 -7 11 -15 11 -8 0 -15 7 -15 16 0 11 -8 15 -28 13 -15 -2 -33 0 -39 4 -7 5 -21 3 -31 -2 -11 -6 -22 -7 -26 -4 -3 3 -6 -26 -6 -66 0 -71 0 -72 30 -77 17 -4 30 -9 31 -13 0 -3 2 -17 4 -31 5 -33 16 -161 17 -180 0 -8 6 -98 14 -200 8 -102 14 -209 14 -238 l0 -54 -56 31 -55 30 3 -32 c3 -27 12 -36 58 -62 l55 -31 -1 -104 c-2 -231 -9 -420 -16 -420 -3 0 -19 10 -35 23 -70 56 -64 57 -62 -11 1 -34 6 -59 10 -56 9 5 49 -17 49 -28 0 -4 -11 -3 -25 2 -16 6 -25 6 -25 0 0 -6 6 -10 14 -10 7 0 19 -7 26 -15 10 -12 9 -16 -4 -21 -24 -9 -19 -23 6 -16 23 5 23 5 4 -16 -24 -27 -13 -29 13 -3 11 11 15 21 9 23 -5 2 -8 14 -6 26 l3 23 32 -24 c18 -13 29 -28 25 -32 -4 -5 -1 -5 6 -1 8 5 27 -3 47 -18 18 -14 37 -26 42 -26 4 0 14 -9 20 -20 7 -10 39 -31 70 -45 32 -14 65 -29 73 -34 8 -6 51 -28 95 -51 44 -23 96 -50 115 -61 19 -10 40 -19 47 -19 7 0 13 -4 13 -10 0 -5 7 -10 16 -10 9 0 28 -8 42 -19 15 -10 77 -44 139 -75 61 -32 111 -63 109 -69 -1 -7 -1 -9 1 -4 8 14 32 7 46 -14 8 -11 27 -22 41 -23 14 -2 38 -16 52 -31 19 -21 28 -25 34 -15 5 8 10 9 14 2 4 -6 -1 -15 -10 -20 -12 -6 -15 -16 -10 -28 7 -18 8 -18 22 0 12 16 14 17 14 4 0 -9 8 -19 18 -21 9 -3 3 -5 -15 -6 -17 0 -35 4 -38 9 -7 12 -25 4 -25 -11 0 -5 6 -9 13 -8 6 1 19 -1 27 -4 8 -3 24 -7 35 -10 11 -2 19 -9 18 -15 -2 -7 6 -12 17 -12 11 0 20 4 20 10 0 12 27 8 58 -8 12 -7 27 -10 32 -7 6 3 10 -1 10 -9 0 -9 7 -16 15 -16 29 0 13 30 -25 47 l-25 11 30 -2 c39 -2 55 -13 55 -37 0 -10 7 -19 15 -19 8 0 19 -10 26 -21 9 -17 13 -19 20 -8 14 22 11 27 -18 36 -27 9 -27 10 -5 15 12 4 22 2 22 -3 0 -4 6 -6 13 -3 8 3 13 -4 14 -16 3 -30 43 -60 68 -50 12 4 34 6 49 3 22 -5 27 -3 21 7 -6 10 -4 12 9 7 10 -4 19 -7 22 -7 2 0 1 -7 -3 -16 -5 -14 -3 -15 15 -5 16 8 22 9 22 1 0 -6 5 -8 10 -5 12 7 80 -13 95 -28 7 -7 4 -8 -8 -4 -11 4 -16 3 -12 -3 8 -13 32 -13 37 0 5 16 90 -17 110 -43 9 -12 20 -18 25 -14 4 5 1 12 -7 17 -13 8 -13 10 1 10 9 0 28 -9 42 -20 17 -13 27 -16 29 -8 3 8 13 8 39 -1 84 -31 176 -41 384 -40 116 0 206 2 200 5 -5 2 -44 10 -85 17 -162 30 -498 98 -545 112 -151 43 -342 109 -353 123 -9 12 -11 47 -8 127 3 60 5 215 6 343 1 127 4 232 6 232 3 0 58 -13 122 -30 220 -56 639 -142 922 -189 218 -36 442 -59 668 -68 l164 -6 -4 -334 -3 -333 46 0 47 0 7 335 7 335 32 0 c144 0 547 32 756 60 349 46 500 75 988 191 26 7 42 16 42 26 0 24 25 9 28 -18 2 -13 8 -29 13 -36 7 -7 5 -13 -3 -17 -10 -4 -10 -8 -1 -12 8 -3 9 -15 2 -37 -5 -18 -9 -74 -9 -126 0 -90 1 -93 21 -88 l21 6 -20 -22 c-18 -20 -20 -37 -21 -162 -1 -76 -3 -141 -5 -142 -9 -9 -245 -89 -351 -120 -101 -28 -485 -124 -645 -160 -37 -9 -13 -11 130 -12 96 0 191 4 210 9 19 5 89 23 155 40 66 17 170 46 231 65 62 19 120 35 129 35 10 0 34 9 54 19 68 36 196 93 241 107 25 8 54 19 65 24 67 31 147 64 195 81 55 20 220 99 230 110 3 3 21 12 40 20 19 8 113 53 209 102 96 48 180 87 188 87 7 0 13 4 13 8 0 5 17 16 38 26 20 10 66 37 102 60 36 24 124 82 197 130 72 47 165 111 207 143 75 55 76 57 76 100 l0 45 -52 -38 c-29 -21 -70 -51 -91 -67 -21 -16 -41 -27 -44 -23 -4 3 -9 118 -11 255 l-5 248 102 58 c84 47 101 61 101 81 0 13 -3 24 -6 24 -8 0 -155 -79 -171 -92 -19 -15 -24 7 -18 74 6 68 25 526 22 542 -1 5 36 26 83 47 l85 38 3 66 c2 36 1 65 -2 65 -10 0 -141 -53 -152 -62 -15 -11 -44 1 -44 18 0 8 -7 14 -16 14 -9 0 -12 -5 -8 -12 22 -35 -5 -66 -63 -74 -7 -1 -20 -9 -29 -18 -8 -9 -25 -16 -37 -16 -27 0 -52 -15 -52 -32 0 -14 -62 -30 -88 -22 -9 3 -32 0 -51 -6 -18 -6 -42 -12 -52 -15 -10 -2 -64 -13 -119 -25 -55 -12 -107 -23 -115 -24 -8 -1 -23 -5 -32 -9 -34 -13 -51 -17 -152 -37 -55 -12 -111 -25 -123 -30 -30 -13 -245 -49 -310 -52 -29 -2 -53 -7 -53 -12 0 -5 -7 -3 -16 5 -13 10 -17 10 -24 -1 -8 -13 -30 -17 -240 -46 -184 -25 -253 -32 -465 -50 -110 -9 -263 -22 -340 -29 -77 -7 -144 -9 -148 -5 -5 5 -21 2 -35 -6 -15 -8 -48 -14 -73 -14 -32 0 -49 -5 -52 -14 -4 -11 -13 -13 -34 -7 -15 4 -39 5 -53 1 -14 -4 -36 -4 -50 0 -14 4 -72 3 -130 -2 -128 -10 -158 -11 -281 -9 l-97 1 -7 37 c-5 30 -3 40 12 51 16 12 16 13 -7 7 l-26 -6 2 93 c1 57 6 94 13 96 6 2 8 9 4 15 -11 18 -14 67 -3 67 5 0 7 7 4 15 -4 8 -1 15 6 15 8 0 10 9 6 26 -5 19 -3 25 6 21 7 -2 12 -9 11 -15 -3 -14 36 -27 47 -15 13 12 23 63 14 63 -5 0 -17 -7 -28 -15 -14 -11 -21 -11 -31 -2 -9 9 -10 14 -1 20 8 5 7 10 -4 17 -11 7 -11 10 -2 10 7 0 15 -6 18 -14 4 -10 23 -13 72 -12 74 3 122 20 103 39 -9 9 -17 8 -31 -1 -25 -16 -30 -15 -30 3 0 9 14 17 38 21 27 4 44 15 62 40 25 34 76 54 101 38 7 -4 10 -3 5 4 -9 14 31 35 55 29 10 -3 23 1 29 8 6 7 23 16 37 20 15 3 39 15 55 26 15 11 33 19 40 18 24 -3 58 13 58 27 0 8 6 11 17 7 10 -4 14 -2 10 4 -8 13 32 56 130 141 119 104 269 263 307 326 10 17 29 47 41 66 13 19 30 62 40 95 9 33 22 74 28 90 17 45 14 191 -6 263 -15 58 -30 93 -70 166 -23 43 -159 195 -179 202 -10 3 -18 14 -18 25 0 21 -16 26 -23 7 -4 -10 -6 -10 -6 -1 -1 7 -7 10 -15 7 -9 -3 -20 4 -28 18 -7 13 -19 23 -25 24 -39 3 -44 5 -38 14 3 6 -1 10 -9 10 -8 0 -17 4 -20 9 -4 5 2 7 13 4 21 -5 36 11 26 27 -5 8 -11 8 -20 0 -9 -8 -15 -8 -20 0 -3 5 -13 10 -22 10 -13 0 -13 -3 -3 -16 12 -13 10 -14 -16 -2 -16 7 -33 18 -37 25 -9 15 -37 17 -37 3 0 -5 -22 -10 -50 -10 -30 0 -50 4 -50 11 0 6 -7 9 -15 6 -8 -4 -17 -1 -21 6 -4 7 -4 9 1 5 4 -4 14 -1 21 7 17 17 18 29 2 18 -21 -13 -50 -14 -64 -2 -7 6 -22 8 -33 4 -10 -3 -22 -1 -26 5 -3 5 -11 10 -16 10 -6 0 -7 -4 -4 -10 3 -5 2 -10 -3 -10 -20 0 -20 14 0 30 l21 17 -24 -3 c-13 -1 -24 -3 -24 -4 0 -2 -10 -4 -23 -5 -16 -2 -21 2 -18 11 3 8 0 14 -7 14 -9 0 -9 2 0 8 7 4 -13 8 -45 9 -38 1 -50 -1 -37 -6 11 -5 27 -7 37 -5 9 1 18 -6 21 -18 5 -16 3 -18 -6 -9 -6 6 -21 11 -33 11 -13 0 -30 7 -38 16 -9 8 -21 12 -28 8 -8 -5 -9 -2 -5 9 3 10 2 17 -3 17 -6 0 -10 -6 -10 -14 0 -8 -5 -18 -11 -22 -8 -4 -9 0 -4 15 8 25 0 27 -22 5 -15 -14 -17 -14 -25 1 -6 10 -16 14 -29 10 -11 -4 -19 -2 -19 4 0 6 -4 11 -10 11 -5 0 -7 -8 -4 -17 5 -17 5 -17 -6 0 -6 9 -20 17 -31 17 -11 0 -27 6 -35 14 -17 17 -19 66 -3 66 8 0 8 4 0 14 -9 10 -13 185 -17 637 -3 343 -7 625 -8 626 -2 2 -6 -259 -10 -579z m164 -802 c0 -3 -4 -8 -10 -11 -5 -3 -10 -1 -10 4 0 6 5 11 10 11 6 0 10 -2 10 -4z m390 -282 c0 -14 -12 -19 -23 -8 -9 9 4 35 14 28 5 -3 9 -12 9 -20z m-390 -87 c0 -5 -4 -5 -10 -2 -5 3 -10 14 -10 23 0 15 2 15 10 2 5 -8 10 -19 10 -23z m-100 -1 c0 -3 -4 -8 -10 -11 -5 -3 -10 -1 -10 4 0 6 5 11 10 11 6 0 10 -2 10 -4z m-155 -56 c3 -5 2 -10 -4 -10 -5 0 -13 5 -16 10 -3 6 -2 10 4 10 5 0 13 -4 16 -10z m55 -15 c0 -7 -6 -15 -14 -18 -9 -4 -13 2 -12 17 1 24 26 25 26 1z m137 -13 c2 -29 0 -33 -7 -16 -4 12 -16 24 -26 28 -16 6 -16 8 -4 16 27 17 35 11 37 -28z m137 12 c4 -15 4 -29 1 -32 -3 -3 -8 4 -12 16 -3 12 -12 22 -19 22 -8 0 -14 5 -14 10 0 23 38 9 44 -16z m90 12 c-21 -15 -30 -14 -19 3 3 6 14 11 23 11 13 0 13 -2 -4 -14z m-31 -58 c6 -4 8 -10 3 -15 -4 -4 -12 0 -17 10 -6 9 -14 15 -20 12 -13 -9 -11 9 4 24 10 10 13 9 16 -6 2 -10 8 -21 14 -25z m167 32 c0 -5 -4 -10 -10 -10 -5 0 -10 5 -10 10 0 6 5 10 10 10 6 0 10 -4 10 -10z m-120 -32 c0 -17 -2 -18 -15 -4 -8 8 -15 16 -15 19 0 2 7 4 15 4 8 0 15 -9 15 -19z m54 7 c-4 -8 -12 -15 -18 -15 -7 0 -13 7 -13 15 0 8 8 15 18 15 12 0 16 -5 13 -15z m-537 -11 c-3 -3 -12 -4 -19 -1 -8 3 -5 6 6 6 11 1 17 -2 13 -5z m278 -4 c3 -5 2 -10 -4 -10 -5 0 -13 5 -16 10 -3 6 -2 10 4 10 5 0 13 -4 16 -10z m98 -7 c-7 -2 -21 -2 -30 0 -10 3 -4 5 12 5 17 0 24 -2 18 -5z m19 -33 c-24 -22 -32 -25 -32 -10 0 6 10 15 23 20 32 13 33 12 9 -10z m68 10 c0 -5 -4 -10 -9 -10 -6 0 -13 5 -16 10 -3 6 1 10 9 10 9 0 16 -4 16 -10z m80 -10 c0 -5 -7 -7 -15 -4 -8 4 -12 10 -9 15 6 11 24 2 24 -11z m-590 -5 c10 -12 10 -15 -4 -15 -9 0 -16 7 -16 15 0 8 2 15 4 15 2 0 9 -7 16 -15z m337 9 c-3 -3 -12 -4 -19 -1 -8 3 -5 6 6 6 11 1 17 -2 13 -5z m-197 -14 c0 -5 -8 -10 -17 -10 -15 0 -16 2 -3 10 19 12 20 12 20 0z m366 -16 c13 4 24 2 24 -3 0 -5 -17 -11 -37 -13 -25 -2 -37 -8 -35 -16 2 -10 -2 -10 -19 -2 -16 9 -18 14 -9 26 7 7 16 12 20 9 4 -3 11 3 15 13 8 16 8 16 12 -1 4 -14 11 -17 29 -13z m-318 -14 c-9 -14 -14 -16 -20 -7 -6 10 5 20 30 26 1 1 -3 -8 -10 -19z m115 13 c-18 -6 -16 -21 3 -41 13 -13 37 -16 120 -15 57 1 104 -3 104 -8 0 -9 -77 -13 -169 -9 -24 1 -60 10 -80 21 -24 13 -37 15 -42 7 -4 -7 -11 -3 -18 11 -10 17 -9 21 4 21 8 0 15 3 15 8 0 4 17 7 38 8 20 0 31 -1 25 -3z m97 -3 c0 -5 -4 -10 -10 -10 -5 0 -10 5 -10 10 0 6 5 10 10 10 6 0 10 -4 10 -10z m-40 -20 c-6 -11 -15 -20 -19 -20 -5 0 -11 9 -14 20 -4 16 0 20 19 20 22 0 23 -3 14 -20z m260 -1 c0 -6 -4 -7 -10 -4 -5 3 -10 11 -10 16 0 6 5 7 10 4 6 -3 10 -11 10 -16z m-545 -9 c3 -5 -1 -10 -10 -10 -9 0 -13 5 -10 10 3 6 8 10 10 10 2 0 7 -4 10 -10z m475 0 c0 -5 -4 -10 -9 -10 -6 0 -13 5 -16 10 -3 6 1 10 9 10 9 0 16 -4 16 -10z m-1075 -30 c3 -5 -1 -10 -9 -10 -9 0 -16 5 -16 10 0 6 4 10 9 10 6 0 13 -4 16 -10z m568 3 c-7 -2 -21 -2 -30 0 -10 3 -4 5 12 5 17 0 24 -2 18 -5z m67 -3 c0 -5 -4 -10 -10 -10 -5 0 -10 5 -10 10 0 6 5 10 10 10 6 0 10 -4 10 -10z m85 0 c3 -5 1 -10 -4 -10 -6 0 -11 5 -11 10 0 6 2 10 4 10 3 0 8 -4 11 -10z m375 0 c0 -5 -7 -10 -15 -10 -8 0 -15 5 -15 10 0 6 7 10 15 10 8 0 15 -4 15 -10z m80 -6 c0 -2 -17 -4 -37 -4 -24 0 -33 3 -25 9 12 7 62 4 62 -5z m-1766 -177 c4 -19 3 -26 -4 -22 -5 3 -10 18 -10 32 0 32 5 28 14 -10z m72 -264 c-10 -10 -19 5 -10 18 6 11 8 11 12 0 2 -7 1 -15 -2 -18z m-16 -243 c0 -5 -4 -10 -10 -10 -5 0 -10 5 -10 10 0 6 5 10 10 10 6 0 10 -4 10 -10z m240 -95 c0 -8 6 -14 13 -12 7 1 11 -6 9 -17 -3 -17 -1 -18 11 -7 13 10 20 9 41 -4 26 -17 34 -35 17 -35 -5 0 -11 6 -13 12 -3 7 -8 -7 -12 -32 -5 -25 -10 -39 -13 -32 -3 6 -9 12 -14 12 -6 0 -7 -4 -4 -10 3 -5 4 -10 1 -10 -2 0 -12 -3 -22 -7 -13 -5 -16 -3 -11 10 3 9 0 23 -8 31 -19 19 -19 40 0 32 8 -3 15 0 15 5 0 6 -9 9 -20 6 -22 -6 -35 21 -25 53 7 23 35 27 35 5z m-80 -103 c0 -15 -2 -15 -10 -2 -13 20 -13 33 0 25 6 -3 10 -14 10 -23z m46 -9 c-10 -10 -19 5 -10 18 6 11 8 11 12 0 2 -7 1 -15 -2 -18z m99 -93 c-3 -5 1 -10 9 -10 9 0 16 -4 16 -10 0 -5 -7 -10 -15 -10 -8 0 -15 2 -15 4 0 2 -3 11 -6 20 -3 9 -1 16 6 16 6 0 8 -4 5 -10z m895 -149 c5 -11 10 -22 10 -24 0 -3 -38 -5 -85 -4 -47 1 -85 5 -85 9 0 8 87 23 113 19 9 -1 17 3 17 8 0 18 19 12 30 -8z m350 -52 c0 -5 -4 -9 -10 -9 -5 0 -10 7 -10 16 0 8 5 12 10 9 6 -3 10 -10 10 -16z m-365 0 c11 -17 0 -20 -21 -4 -17 13 -17 14 -2 15 9 0 20 -5 23 -11z m255 -39 c0 -5 -4 -10 -10 -10 -5 0 -10 5 -10 10 0 6 5 10 10 10 6 0 10 -4 10 -10z m-680 -26 c0 -8 -4 -14 -9 -14 -11 0 -22 26 -14 34 9 9 23 -3 23 -20z m-65 -44 c-3 -4 5 -6 17 -3 21 5 22 4 7 -11 -9 -10 -22 -14 -32 -10 -17 6 -22 25 -11 37 9 9 26 -2 19 -13z m251 11 c-4 -5 -1 -11 6 -13 7 -3 8 -9 3 -18 -7 -11 -10 -10 -15 6 -7 18 -4 34 6 34 3 0 3 -4 0 -9z m54 -1 c0 -5 -4 -10 -10 -10 -5 0 -10 5 -10 10 0 6 5 10 10 10 6 0 10 -4 10 -10z m199 -14 c-2 -2 -15 -7 -28 -11 -17 -5 -22 -4 -19 6 3 8 13 13 22 13 9 -1 16 3 17 10 0 6 3 6 6 -2 3 -7 3 -15 2 -16z m-309 -1 c0 -8 -4 -15 -9 -15 -13 0 -22 16 -14 24 11 11 23 6 23 -9z m-33 -47 c-3 -7 -5 -2 -5 12 0 14 2 19 5 13 2 -7 2 -19 0 -25z m71 -5 c-5 -25 -28 -28 -28 -4 0 12 6 21 16 21 9 0 14 -7 12 -17z m42 7 c0 -5 -5 -10 -11 -10 -5 0 -7 5 -4 10 3 6 8 10 11 10 2 0 4 -4 4 -10z m144 -46 c7 -19 2 -18 -19 6 -16 17 -16 20 -3 15 9 -4 19 -13 22 -21z m50 5 c-3 -5 -10 -7 -15 -3 -5 3 -7 10 -3 15 3 5 10 7 15 3 5 -3 7 -10 3 -15z m-3285 -5 c31 -9 74 -20 96 -26 22 -6 60 -17 85 -24 70 -22 236 -59 460 -103 113 -23 275 -55 360 -72 85 -17 194 -40 243 -51 l87 -20 0 -234 c0 -166 -3 -234 -11 -234 -8 0 -8 -4 -1 -12 5 -7 13 -106 17 -220 7 -199 7 -208 -11 -208 -16 0 -235 60 -284 78 -8 3 -19 6 -25 6 -5 1 -36 11 -69 24 -32 12 -61 20 -64 17 -3 -3 -12 1 -21 8 -9 7 -34 19 -56 26 -55 18 -317 123 -387 155 -32 14 -84 38 -115 52 -32 15 -97 44 -145 65 -48 21 -109 49 -136 63 l-49 25 -7 143 c-4 79 -11 186 -16 238 -5 52 -12 136 -16 185 -3 50 -8 93 -10 97 -5 8 6 38 14 38 3 0 30 -7 61 -16z m3132 -7 c-1 -12 -15 -9 -19 4 -3 6 1 10 8 8 6 -3 11 -8 11 -12z m184 3 c-3 -5 -11 -10 -16 -10 -6 0 -7 5 -4 10 3 6 11 10 16 10 6 0 7 -4 4 -10z m-145 -4 c0 -3 -4 -8 -10 -11 -5 -3 -10 -1 -10 4 0 6 5 11 10 11 6 0 10 -2 10 -4z m3560 -78 c0 -40 -5 -172 -11 -293 -6 -121 -11 -234 -10 -252 1 -29 -4 -35 -81 -81 -226 -136 -443 -242 -728 -354 -204 -81 -485 -172 -506 -164 -8 3 -12 2 -9 -4 3 -6 -3 -10 -14 -10 -13 0 -21 7 -22 18 -2 34 4 392 10 627 l6 240 65 12 c36 7 133 24 215 39 132 23 424 89 510 115 17 4 53 15 80 23 159 46 231 71 239 84 7 12 10 12 16 1 6 -9 12 -10 22 -2 7 6 29 14 48 18 19 4 44 12 55 19 17 9 82 30 108 35 4 0 7 -32 7 -71z m-260 22 c0 -5 -2 -10 -4 -10 -3 0 -8 5 -11 10 -3 6 -1 10 4 10 6 0 11 -4 11 -10z m-4970 -96 c0 -2 -12 -4 -27 -4 -21 0 -24 3 -14 9 13 8 41 5 41 -5z m1390 -94 c0 -5 -4 -10 -10 -10 -5 0 -10 5 -10 10 0 6 5 10 10 10 6 0 10 -4 10 -10z m91 -50 c5 0 9 -4 9 -8 0 -5 -13 -7 -30 -4 -16 2 -27 9 -24 14 3 5 13 7 21 4 8 -3 19 -6 24 -6z m-1421 -35 c119 -20 281 -45 298 -45 7 0 18 -13 23 -30 11 -31 23 -38 34 -20 4 6 15 8 25 5 10 -3 24 0 32 8 11 11 27 12 98 1 73 -11 310 -39 420 -49 19 -2 59 -6 88 -9 38 -5 52 -3 52 6 0 10 2 10 8 0 9 -13 35 -16 242 -27 63 -3 133 -8 155 -10 24 -2 43 1 47 8 6 9 8 9 8 0 0 -16 42 -17 58 -1 7 7 12 8 12 2 0 -7 29 -12 71 -12 40 -1 74 -4 77 -7 7 -7 4 -1017 -3 -1023 -3 -3 -105 0 -227 7 -227 12 -473 42 -698 86 -349 68 -449 88 -490 95 -55 10 -453 111 -459 116 -2 2 -6 211 -8 465 l-4 461 23 -5 c13 -4 66 -13 118 -22z m1047 19 c-3 -3 -12 -4 -19 -1 -8 3 -5 6 6 6 11 1 17 -2 13 -5z m398 -24 c-3 -5 -12 -10 -18 -10 -7 0 -6 4 3 10 19 12 23 12 15 0z m2270 -203 c-2 -94 -7 -296 -10 -447 -4 -151 -9 -278 -13 -282 -11 -10 -273 -72 -527 -124 -152 -31 -467 -78 -700 -105 -185 -21 -601 -46 -610 -37 -6 6 -8 1008 -2 1014 1 2 70 6 153 9 168 6 406 23 829 60 160 14 350 30 424 35 73 6 163 15 200 20 36 6 104 15 151 21 47 6 87 13 89 15 15 15 19 -29 16 -179z m1428 -438 c4 -138 4 -255 2 -260 -10 -15 -142 -103 -288 -191 -148 -89 -536 -289 -717 -368 -135 -60 -342 -142 -346 -137 -2 2 -4 42 -5 90 -1 71 -4 87 -16 87 -12 0 -13 3 -5 13 15 17 13 107 -2 107 -6 0 -4 6 5 13 9 7 14 24 13 42 -1 17 -3 76 -3 133 -1 96 -2 102 -21 102 -17 0 -19 3 -11 18 6 12 43 28 103 46 213 63 436 141 658 231 118 48 304 143 461 235 85 49 157 90 160 90 3 0 9 -113 12 -251z m-6391 77 c278 -123 422 -181 578 -231 63 -20 129 -43 145 -50 25 -11 134 -46 273 -86 l32 -10 2 -262 c1 -144 3 -280 4 -302 10 -165 13 -161 -103 -109 -28 13 -54 24 -56 24 -3 0 -45 18 -94 41 -48 22 -104 47 -123 56 -74 33 -609 302 -690 347 -47 26 -136 80 -199 119 l-113 72 6 240 c3 132 6 255 6 273 l0 32 50 -25 c27 -14 154 -72 282 -129z m5018 -296 c0 -5 -5 -10 -11 -10 -5 0 -7 5 -4 10 3 6 8 10 11 10 2 0 4 -4 4 -10z m-4264 -770 c21 -10 32 -19 24 -20 -8 0 -28 9 -45 20 -38 25 -30 25 21 0z m314 -120 c0 -5 -4 -10 -9 -10 -6 0 -13 5 -16 10 -3 6 1 10 9 10 9 0 16 -4 16 -10z" fill="#0a0903"/>
<path d="M2546 2863 c-6 -14 -5 -15 5 -6 7 7 10 15 7 18 -3 3 -9 -2 -12 -12z" fill="#0a0903"/>
<path d="M2607 2810 c3 -11 9 -20 14 -20 5 0 9 9 9 20 0 11 -6 20 -14 20 -9 0 -12 -7 -9 -20z" fill="#0a0903"/>
<path d="M2430 1526 c0 -2 7 -7 16 -10 8 -3 12 -2 9 4 -6 10 -25 14 -25 6z" fill="#0a0903"/>
<path d="M3735 1230 c3 -5 8 -10 11 -10 2 0 4 5 4 10 0 6 -5 10 -11 10 -5 0 -7 -4 -4 -10z" fill="#0a0903"/>
<path d="M4878 913 c7 -3 16 -2 19 1 4 3 -2 6 -13 5 -11 0 -14 -3 -6 -6z" fill="#0a0903"/>
<path d="M6155 1001 c-3 -5 -1 -12 4 -15 5 -3 11 1 15 9 6 16 -9 21 -19 6z" fill="#0a0903"/>
<path d="M355 890 c3 -5 8 -10 11 -10 2 0 4 5 4 10 0 6 -5 10 -11 10 -5 0 -7 -4 -4 -10z" fill="#0a0903"/>
<path d="M890 720 c0 -5 7 -10 15 -10 8 0 15 5 15 10 0 6 -7 10 -15 10 -8 0 -15 -4 -15 -10z" fill="#0a0903"/>
<path d="M2688 5643 c7 -3 16 -2 19 1 4 3 -2 6 -13 5 -11 0 -14 -3 -6 -6z" fill="#0a0903"/>
<path d="M2690 5609 c0 -5 5 -7 10 -4 6 3 10 8 10 11 0 2 -4 4 -10 4 -5 0 -10 -5 -10 -11z" fill="#0a0903"/>
<path d="M2614 5545 c-4 -8 -12 -15 -20 -15 -9 0 -14 -11 -14 -29 0 -16 -10 -39 -24 -53 -39 -43 -58 -102 -28 -91 15 6 15 5 4 -10 -8 -9 -11 -21 -7 -27 6 -9 -7 -14 -27 -11 -5 0 -8 -6 -8 -14 0 -8 -7 -15 -16 -15 -8 0 -12 -5 -9 -11 4 -6 14 -8 24 -5 12 5 11 2 -3 -9 -11 -8 -23 -15 -28 -15 -4 0 -8 -11 -8 -24 0 -14 -4 -27 -9 -31 -6 -3 -17 -19 -25 -36 -14 -29 -14 -30 2 -25 14 5 13 3 -2 -9 -11 -8 -23 -15 -26 -15 -4 0 -12 -11 -18 -25 -9 -20 -9 -23 3 -18 9 3 15 -1 15 -9 0 -23 57 -20 86 4 26 23 110 185 106 206 -2 6 2 12 8 12 5 0 10 7 10 17 0 14 -2 14 -20 -2 -16 -15 -20 -15 -15 -3 3 8 15 20 27 25 11 5 29 31 39 58 23 60 24 71 4 55 -9 -8 -15 -9 -15 -2 0 6 10 18 22 26 12 9 23 21 24 28 1 7 5 21 9 31 7 17 6 18 -13 6 -12 -8 -17 -16 -11 -20 6 -3 3 -11 -7 -20 -16 -13 -17 -11 -10 23 3 20 3 38 -1 40 -4 3 -3 3 4 2 6 -2 14 4 17 12 4 9 -1 14 -15 14 -11 0 -22 -7 -25 -15z m-54 -129 c0 -3 -4 -8 -10 -11 -5 -3 -10 -1 -10 4 0 6 5 11 10 11 6 0 10 -2 10 -4z m46 -40 c-11 -18 -12 -27 -5 -32 8 -4 6 -10 -5 -16 -10 -6 -19 -8 -21 -6 -6 6 27 78 37 78 6 0 3 -11 -6 -24z m-46 -156 c0 -5 -2 -10 -4 -10 -3 0 -8 5 -11 10 -3 6 -1 10 4 10 6 0 11 -4 11 -10z m-155 -140 c3 -5 1 -10 -4 -10 -6 0 -11 5 -11 10 0 6 2 10 4 10 3 0 8 -4 11 -10z" fill="#0a0903"/>
<path d="M4657 5199 c7 -7 15 -10 18 -7 3 3 -2 9 -12 12 -14 6 -15 5 -6 -5z" fill="#0a0903"/>
<path d="M4731 5134 c-1 -5 5 -19 13 -30 14 -19 15 -18 13 3 0 12 -4 20 -8 17 -4 -2 -10 2 -12 8 -3 7 -6 8 -6 2z" fill="#0a0903"/>
<path d="M4672 5084 c10 -10 20 -15 24 -12 3 4 -5 12 -18 18 -22 12 -22 12 -6 -6z" fill="#0a0903"/>
<path d="M4697 5014 c3 -7 11 -14 19 -14 15 0 37 -34 27 -44 -3 -3 -2 -6 4 -6 6 0 13 -10 17 -22 5 -19 8 -21 16 -8 6 10 10 11 10 3 0 -7 5 -13 10 -13 13 0 1 52 -14 62 -6 4 -14 2 -18 -5 -5 -8 -8 -8 -8 -1 0 15 -31 49 -52 57 -12 4 -15 2 -11 -9z" fill="#0a0903"/>
<path d="M2407 4989 c-11 -10 -28 -16 -43 -13 -20 4 -24 0 -24 -20 0 -13 -7 -26 -14 -29 -11 -4 -13 -1 -9 10 5 13 2 15 -11 10 -10 -4 -20 -7 -22 -7 -3 0 -2 -5 2 -11 3 -6 3 -14 -2 -18 -5 -3 -36 -37 -70 -76 -53 -61 -60 -73 -51 -92 15 -35 53 -30 61 7 5 28 26 43 26 19 0 -5 5 -7 10 -4 15 9 12 37 -2 30 -7 -4 -2 3 11 14 15 14 31 19 45 16 16 -5 18 -4 7 4 -12 8 -12 12 -2 25 18 21 35 20 27 0 -5 -14 -4 -15 9 -4 8 7 15 21 15 31 0 11 6 19 13 19 7 0 8 3 2 8 -5 4 -11 15 -13 26 -3 13 1 17 12 13 10 -4 13 -1 9 9 -3 8 1 14 11 14 9 0 16 6 16 13 0 8 4 7 10 -3 5 -8 10 -10 10 -5 0 25 -15 32 -33 14z m-137 -153 c0 -3 -4 -8 -10 -11 -5 -3 -10 -1 -10 4 0 6 5 11 10 11 6 0 10 -2 10 -4z" fill="#0a0903"/>
<path d="M4823 4966 c3 -8 1 -16 -4 -18 -5 -2 0 -14 12 -26 17 -19 19 -26 9 -35 -10 -9 -11 -9 -6 1 4 6 2 12 -4 12 -7 0 -9 -7 -6 -16 3 -9 6 -20 6 -25 0 -6 4 -8 9 -5 5 3 11 -1 14 -9 4 -9 1 -12 -9 -8 -20 8 -17 -11 6 -32 11 -10 28 -15 40 -12 16 4 24 -2 37 -26 l16 -32 -22 19 c-11 11 -21 14 -21 9 0 -6 7 -16 15 -23 9 -7 13 -21 10 -31 -4 -11 -2 -19 5 -19 6 0 9 4 6 9 -3 5 0 11 8 14 10 4 12 0 9 -14 -5 -16 -1 -20 13 -17 13 2 19 -3 19 -17 0 -11 -4 -23 -10 -27 -6 -4 -2 -8 9 -8 10 0 35 -17 55 -37 48 -50 140 -107 169 -105 20 2 27 -8 23 -31 -1 -6 74 -46 99 -52 3 -1 13 -5 23 -9 10 -5 23 -3 32 4 14 11 19 7 16 -12 0 -4 8 -12 18 -17 14 -8 22 -6 32 7 13 15 12 16 -3 3 -12 -9 -18 -10 -18 -2 0 6 0 13 0 16 0 3 3 5 7 4 4 0 10 8 14 18 6 16 8 14 18 -9 11 -29 30 -38 32 -15 0 6 7 -3 15 -20 11 -26 20 -33 42 -32 15 0 21 3 15 6 -7 2 -13 11 -13 19 0 8 -5 14 -11 14 -5 0 -7 -5 -3 -12 4 -7 3 -8 -4 -4 -6 3 -9 23 -7 44 3 32 6 37 27 34 18 -2 20 0 8 8 -14 9 -52 6 -95 -7 -16 -5 -18 -3 -8 8 11 14 7 15 -59 19 -9 1 -18 11 -21 22 -4 15 -11 19 -26 15 -12 -3 -19 -1 -16 3 3 5 -8 11 -25 15 -16 4 -30 10 -30 15 0 4 -9 10 -19 13 -14 3 -18 1 -14 -9 4 -11 0 -12 -18 -5 -15 5 -24 17 -25 32 -1 13 -9 28 -19 34 -16 10 -78 55 -101 74 -7 6 -16 5 -24 -2 -10 -9 -11 -7 -6 9 5 16 0 26 -19 38 -14 9 -25 22 -25 29 0 6 -21 32 -46 56 -26 25 -58 62 -71 83 -14 21 -29 38 -33 38 -4 0 -11 11 -14 25 -4 14 -14 25 -22 25 -10 0 -14 -6 -11 -14z m65 -148 c-20 -12 -32 -9 -19 5 7 9 7 17 0 24 -5 5 -7 18 -3 27 6 15 9 12 21 -15 11 -26 11 -34 1 -41z m132 -169 c0 -5 -4 -9 -10 -9 -5 0 -10 7 -10 16 0 8 5 12 10 9 6 -3 10 -10 10 -16z m244 -174 c-4 -8 -8 -15 -10 -15 -2 0 -4 7 -4 15 0 8 4 15 10 15 5 0 7 -7 4 -15z" fill="#0a0903"/>
<path d="M100 4940 c0 -5 5 -10 10 -10 6 0 10 5 10 10 0 6 -4 10 -10 10 -5 0 -10 -4 -10 -10z" fill="#0a0903"/>
<path d="M4650 4940 c0 -5 5 -10 10 -10 6 0 10 5 10 10 0 6 -4 10 -10 10 -5 0 -10 -4 -10 -10z" fill="#0a0903"/>
<path d="M4796 4877 c3 -10 9 -15 12 -12 3 3 0 11 -7 18 -10 9 -11 8 -5 -6z" fill="#0a0903"/>
<path d="M2226 4714 c-5 -14 -4 -15 9 -4 17 14 19 20 6 20 -5 0 -12 -7 -15 -16z" fill="#0a0903"/>
<path d="M2110 4703 c0 -12 7 -23 15 -27 13 -5 14 -2 4 17 -17 32 -19 33 -19 10z" fill="#0a0903"/>
<path d="M2175 4700 c-3 -5 -1 -10 4 -10 6 0 11 5 11 10 0 6 -2 10 -4 10 -3 0 -8 -4 -11 -10z" fill="#0a0903"/>
<path d="M2048 4650 c-12 -16 -28 -30 -35 -30 -8 0 -11 -5 -8 -11 4 -6 0 -9 -11 -7 -11 2 -23 -5 -28 -18 -6 -14 -19 -21 -36 -21 -31 0 -119 -51 -116 -67 1 -6 5 -17 9 -23 10 -15 -4 -17 -21 -3 -7 5 -5 2 3 -7 13 -15 16 -15 32 -1 22 19 44 13 35 -10 -5 -16 -5 -16 11 0 9 9 17 21 17 27 0 6 7 8 15 5 8 -4 15 -1 15 6 0 6 5 8 10 5 6 -3 10 -2 10 4 0 5 9 13 20 16 11 4 17 11 14 17 -5 7 -1 9 9 5 9 -3 19 -2 22 4 4 5 11 7 16 3 5 -3 9 -2 8 3 -4 20 2 33 15 33 18 0 28 40 14 57 -8 10 -6 17 8 28 10 8 14 15 7 15 -7 0 -22 -13 -35 -30z m4 -32 c-7 -7 -12 -8 -12 -2 0 14 12 26 19 19 2 -3 -1 -11 -7 -17z" fill="#0a0903"/>
<path d="M2092 4652 c-7 -5 -10 -16 -6 -25 9 -25 19 -21 20 8 1 14 1 25 0 25 0 0 -7 -4 -14 -8z" fill="#0a0903"/>
<path d="M1300 4470 c0 -5 5 -10 10 -10 6 0 10 5 10 10 0 6 -4 10 -10 10 -5 0 -10 -4 -10 -10z" fill="#0a0903"/>
<path d="M1720 4470 c-1 -3 -3 -27 -4 -53 l-1 -48 23 26 c25 30 29 47 8 39 -9 -4 -16 3 -19 18 -2 13 -5 21 -7 18z" fill="#0a0903"/>
<path d="M1767 4427 c-8 -20 8 -39 28 -35 10 1 20 10 22 18 4 12 3 13 -5 1 -12 -17 -33 -5 -25 14 3 8 1 15 -5 15 -5 0 -12 -6 -15 -13z" fill="#0a0903"/>
<path d="M978 4423 c7 -3 16 -2 19 1 4 3 -2 6 -13 5 -11 0 -14 -3 -6 -6z" fill="#0a0903"/>
<path d="M3000 4349 c0 -5 5 -7 10 -4 6 3 10 8 10 11 0 2 -4 4 -10 4 -5 0 -10 -5 -10 -11z" fill="#0a0903"/>
<path d="M5930 4340 c0 -5 5 -10 11 -10 5 0 7 5 4 10 -3 6 -8 10 -11 10 -2 0 -4 -4 -4 -10z" fill="#0a0903"/>
<path d="M3941 4331 c-8 -6 -9 -11 -3 -15 6 -3 14 -1 17 5 9 14 2 20 -14 10z" fill="#0a0903"/>
<path d="M2730 4310 c0 -5 5 -10 11 -10 5 0 7 5 4 10 -3 6 -8 10 -11 10 -2 0 -4 -4 -4 -10z" fill="#0a0903"/>
<path d="M4046 4301 c-4 -7 -5 -15 -2 -18 9 -9 19 4 14 18 -4 11 -6 11 -12 0z" fill="#0a0903"/>
<path d="M3330 4290 c0 -5 5 -10 10 -10 6 0 10 5 10 10 0 6 -4 10 -10 10 -5 0 -10 -4 -10 -10z" fill="#0a0903"/>
<path d="M3055 4270 c-3 -5 1 -10 10 -10 9 0 13 5 10 10 -3 6 -8 10 -10 10 -2 0 -7 -4 -10 -10z" fill="#0a0903"/>
<path d="M4075 4270 c-3 -5 -1 -10 4 -10 6 0 11 5 11 10 0 6 -2 10 -4 10 -3 0 -8 -4 -11 -10z" fill="#0a0903"/>
<path d="M4416 4251 c-3 -5 1 -11 9 -15 15 -6 29 7 18 18 -9 9 -21 8 -27 -3z" fill="#0a0903"/>
<path d="M2230 4243 c0 -5 7 -18 16 -29 14 -18 15 -18 8 6 -6 23 -6 24 11 10 16 -13 18 -13 13 0 -5 16 -48 27 -48 13z" fill="#0a0903"/>
<path d="M4308 4193 c7 -3 16 -2 19 1 4 3 -2 6 -13 5 -11 0 -14 -3 -6 -6z" fill="#0a0903"/>
<path d="M4350 4180 c-8 -16 -8 -20 4 -20 16 0 29 27 16 35 -5 3 -14 -4 -20 -15z" fill="#0a0903"/>
<path d="M2723 4183 c-7 -3 -13 -12 -13 -20 0 -13 3 -13 16 -2 13 10 19 10 36 0 11 -7 17 -8 13 -2 -9 16 -38 29 -52 24z" fill="#0a0903"/>
<path d="M2447 4140 c5 -20 15 -25 26 -14 6 6 -16 34 -26 34 -3 0 -3 -9 0 -20z" fill="#0a0903"/>
<path d="M2450 4060 c0 -5 7 -10 16 -10 8 0 12 5 9 10 -3 6 -10 10 -16 10 -5 0 -9 -4 -9 -10z" fill="#0a0903"/>
<path d="M2540 4040 c0 -5 5 -10 11 -10 5 0 7 5 4 10 -3 6 -8 10 -11 10 -2 0 -4 -4 -4 -10z" fill="#0a0903"/>
<path d="M5475 3950 c3 -5 8 -10 11 -10 2 0 4 5 4 10 0 6 -5 10 -11 10 -5 0 -7 -4 -4 -10z" fill="#0a0903"/>
<path d="M2365 3900 c-3 -5 1 -10 9 -10 9 0 16 5 16 10 0 6 -4 10 -9 10 -6 0 -13 -4 -16 -10z" fill="#0a0903"/>
<path d="M714 3868 c2 -19 16 -29 16 -13 0 3 0 12 0 20 0 8 -4 15 -10 15 -5 0 -8 -10 -6 -22z" fill="#0a0903"/>
<path d="M2335 3780 c-3 -5 -1 -10 4 -10 6 0 11 5 11 10 0 6 -2 10 -4 10 -3 0 -8 -4 -11 -10z" fill="#0a0903"/>
<path d="M530 3709 c0 -5 5 -7 10 -4 6 3 10 8 10 11 0 2 -4 4 -10 4 -5 0 -10 -5 -10 -11z" fill="#0a0903"/>
<path d="M2280 3642 c0 -4 9 -8 20 -8 11 0 20 4 20 8 0 4 -9 8 -20 8 -11 0 -20 -4 -20 -8z" fill="#0a0903"/>
<path d="M7060 3620 c0 -5 5 -10 11 -10 5 0 7 5 4 10 -3 6 -8 10 -11 10 -2 0 -4 -4 -4 -10z" fill="#0a0903"/>
<path d="M508 3583 c7 -3 16 -2 19 1 4 3 -2 6 -13 5 -11 0 -14 -3 -6 -6z" fill="#0a0903"/>
<path d="M365 3510 c3 -5 8 -10 11 -10 2 0 4 5 4 10 0 6 -5 10 -11 10 -5 0 -7 -4 -4 -10z" fill="#0a0903"/>
<path d="M2181 3438 c-1 -10 -5 -18 -11 -18 -5 0 -10 -5 -10 -12 0 -8 6 -7 16 4 9 9 14 22 11 30 -4 9 -6 7 -6 -4z" fill="#0a0903"/>
<path d="M2160 3370 c0 -5 5 -10 10 -10 6 0 10 5 10 10 0 6 -4 10 -10 10 -5 0 -10 -4 -10 -10z" fill="#0a0903"/>
<path d="M2195 3330 c2 -31 15 -37 15 -7 0 15 -4 27 -8 27 -5 0 -8 -9 -7 -20z" fill="#0a0903"/>
<path d="M585 3260 c3 -5 8 -10 11 -10 2 0 4 5 4 10 0 6 -5 10 -11 10 -5 0 -7 -4 -4 -10z" fill="#0a0903"/>
<path d="M2246 3251 c-4 -7 -5 -15 -2 -18 9 -9 19 4 14 18 -4 11 -6 11 -12 0z" fill="#0a0903"/>
<path d="M560 3240 c0 -5 5 -10 11 -10 5 0 7 5 4 10 -3 6 -8 10 -11 10 -2 0 -4 -4 -4 -10z" fill="#0a0903"/>
<path d="M2245 3190 c3 -5 8 -10 11 -10 2 0 4 5 4 10 0 6 -5 10 -11 10 -5 0 -7 -4 -4 -10z" fill="#0a0903"/>
<path d="M838 2933 c7 -3 16 -2 19 1 4 3 -2 6 -13 5 -11 0 -14 -3 -6 -6z" fill="#0a0903"/>
<path d="M856 2905 c-3 -8 -1 -15 4 -15 6 0 10 7 10 15 0 8 -2 15 -4 15 -2 0 -6 -7 -10 -15z" fill="#0a0903"/>
<path d="M6586 2896 c6 -15 34 -30 34 -18 0 4 -9 13 -20 19 -16 11 -18 10 -14 -1z" fill="#0a0903"/>
<path d="M6775 2900 c3 -5 10 -10 16 -10 5 0 9 5 9 10 0 6 -7 10 -16 10 -8 0 -12 -4 -9 -10z" fill="#0a0903"/>
<path d="M1960 2876 c0 -8 6 -17 13 -20 6 -3 0 -3 -15 0 -31 7 -35 -2 -14 -31 7 -11 17 -31 21 -45 7 -24 7 -24 -8 -5 -8 11 -13 23 -11 27 3 5 -4 8 -15 8 -26 0 -27 -15 -1 -42 25 -27 60 -31 60 -7 0 19 14 32 24 22 3 -3 1 -12 -5 -20 -9 -10 -6 -13 14 -13 27 0 48 -25 40 -47 -3 -7 -1 -13 5 -13 8 0 32 65 32 89 0 17 -28 13 -38 -5 -12 -21 -32 -10 -32 17 0 10 -4 19 -10 19 -5 0 -10 8 -10 18 0 21 -27 62 -41 62 -5 0 -9 -6 -9 -14z" fill="#0a0903"/>
<path d="M2250 2810 c0 -5 5 -10 10 -10 6 0 10 5 10 10 0 6 -4 10 -10 10 -5 0 -10 -4 -10 -10z" fill="#0a0903"/>
<path d="M2220 2740 c0 -5 7 -10 16 -10 8 0 12 5 9 10 -3 6 -10 10 -16 10 -5 0 -9 -4 -9 -10z" fill="#0a0903"/>
<path d="M2289 2719 c17 -17 31 -35 31 -40 0 -5 5 -9 10 -9 6 0 10 7 10 15 0 8 6 12 13 9 7 -2 24 4 37 16 17 15 19 20 8 20 -9 0 -18 -7 -22 -15 -8 -22 -21 -18 -36 10 -14 26 -40 34 -40 13 0 -9 -3 -9 -12 0 -7 7 -16 12 -21 12 -5 0 5 -14 22 -31z" fill="#0a0903"/>
<path d="M1966 2712 c-3 -5 4 -17 16 -26 19 -17 20 -17 15 -1 -4 9 -7 21 -7 26 0 11 -17 12 -24 1z" fill="#0a0903"/>
<path d="M2245 2710 c-3 -5 -1 -10 4 -10 6 0 11 5 11 10 0 6 -2 10 -4 10 -3 0 -8 -4 -11 -10z" fill="#0a0903"/>
<path d="M2152 2689 c-12 -18 -12 -23 0 -30 14 -9 22 9 16 36 -2 12 -6 11 -16 -6z" fill="#0a0903"/>
<path d="M2090 2685 c0 -8 2 -15 4 -15 2 0 6 7 10 15 3 8 1 15 -4 15 -6 0 -10 -7 -10 -15z" fill="#0a0903"/>
<path d="M2553 2667 c1 -22 5 -33 10 -28 6 6 5 20 -1 38 -9 28 -9 27 -9 -10z" fill="#0a0903"/>
<path d="M621 2681 c-10 -6 -10 -10 -1 -16 13 -8 24 -1 19 14 -3 6 -10 7 -18 2z" fill="#0a0903"/>
<path d="M2015 2680 c3 -5 8 -10 11 -10 2 0 4 5 4 10 0 6 -5 10 -11 10 -5 0 -7 -4 -4 -10z" fill="#0a0903"/>
<path d="M2185 2680 c-3 -5 1 -10 10 -10 9 0 13 5 10 10 -3 6 -8 10 -10 10 -2 0 -7 -4 -10 -10z" fill="#0a0903"/>
<path d="M2285 2660 c-3 -6 1 -7 9 -4 18 7 21 14 7 14 -6 0 -13 -4 -16 -10z" fill="#0a0903"/>
<path d="M1950 2640 c-18 -16 -20 -20 -7 -20 10 0 17 -4 17 -10 0 -19 32 -10 37 10 3 11 10 20 17 20 14 0 -15 20 -30 20 -6 0 -21 -9 -34 -20z m35 -10 c3 -5 -1 -10 -10 -10 -9 0 -13 5 -10 10 3 6 8 10 10 10 2 0 7 -4 10 -10z" fill="#0a0903"/>
<path d="M2110 2646 c0 -9 5 -16 10 -16 6 0 10 4 10 9 0 6 -4 13 -10 16 -5 3 -10 -1 -10 -9z" fill="#0a0903"/>
<path d="M2175 2640 c-3 -5 -1 -10 4 -10 6 0 11 5 11 10 0 6 -2 10 -4 10 -3 0 -8 -4 -11 -10z" fill="#0a0903"/>
<path d="M2220 2629 c0 -5 5 -7 10 -4 6 3 10 8 10 11 0 2 -4 4 -10 4 -5 0 -10 -5 -10 -11z" fill="#0a0903"/>
<path d="M2630 2610 c0 -5 -7 -10 -15 -10 -8 0 -15 -5 -15 -11 0 -6 6 -9 14 -6 8 3 16 1 19 -6 2 -8 5 -8 11 1 4 7 3 12 -3 12 -6 0 -8 7 -5 15 4 8 3 15 0 15 -3 0 -6 -4 -6 -10z" fill="#0a0903"/>
<path d="M2465 2580 c-3 -5 1 -10 9 -10 9 0 16 5 16 10 0 6 -4 10 -9 10 -6 0 -13 -4 -16 -10z" fill="#0a0903"/>
<path d="M2680 2574 c0 -9 5 -14 12 -12 18 6 21 28 4 28 -9 0 -16 -7 -16 -16z" fill="#0a0903"/>
<path d="M6968 2573 c7 -3 16 -2 19 1 4 3 -2 6 -13 5 -11 0 -14 -3 -6 -6z" fill="#0a0903"/>
<path d="M6798 2563 c7 -3 16 -2 19 1 4 3 -2 6 -13 5 -11 0 -14 -3 -6 -6z" fill="#0a0903"/>
<path d="M2675 2520 c-3 -5 -1 -10 4 -10 6 0 11 5 11 10 0 6 -2 10 -4 10 -3 0 -8 -4 -11 -10z" fill="#0a0903"/>
<path d="M6380 2510 c8 -5 20 -10 25 -10 6 0 3 5 -5 10 -8 5 -19 10 -25 10 -5 0 -3 -5 5 -10z" fill="#0a0903"/>
<path d="M2810 2486 c0 -9 7 -16 16 -16 17 0 14 22 -4 28 -7 2 -12 -3 -12 -12z" fill="#0a0903"/>
<path d="M147 2479 c8 -8 16 -8 30 0 16 9 14 10 -11 11 -22 0 -27 -3 -19 -11z" fill="#0a0903"/>
<path d="M240 2480 c0 -5 9 -10 21 -10 11 0 17 5 14 10 -3 6 -13 10 -21 10 -8 0 -14 -4 -14 -10z" fill="#0a0903"/>
<path d="M370 2480 c0 -5 5 -10 10 -10 6 0 10 5 10 10 0 6 -4 10 -10 10 -5 0 -10 -4 -10 -10z" fill="#0a0903"/>
<path d="M2530 2470 c0 -5 5 -10 11 -10 5 0 7 5 4 10 -3 6 -8 10 -11 10 -2 0 -4 -4 -4 -10z" fill="#0a0903"/>
<path d="M3910 2470 c0 -5 7 -10 15 -10 8 0 15 -8 15 -17 0 -13 3 -14 11 -6 9 9 8 16 -4 27 -18 18 -37 21 -37 6z" fill="#0a0903"/>
<path d="M2395 2450 c-3 -6 1 -7 9 -4 18 7 21 14 7 14 -6 0 -13 -4 -16 -10z" fill="#0a0903"/>
<path d="M2797 2433 c11 -31 15 -34 29 -22 8 6 23 9 35 6 17 -4 18 -3 8 9 -7 8 -20 12 -30 9 -11 -4 -19 -2 -19 4 0 6 -7 11 -15 11 -9 0 -12 -6 -8 -17z" fill="#0a0903"/>
<path d="M6900 2420 c19 -13 30 -13 30 0 0 6 -10 10 -22 10 -19 0 -20 -2 -8 -10z" fill="#0a0903"/>
<path d="M485 2391 c-9 -15 8 -35 24 -30 8 3 7 10 -2 23 -10 14 -16 16 -22 7z" fill="#0a0903"/>
<path d="M3758 2359 c-26 -15 -22 -24 12 -25 25 -1 28 1 19 17 -11 22 -9 21 -31 8z" fill="#0a0903"/>
<path d="M1057 2327 c3 -15 12 -23 24 -23 18 0 18 2 5 12 -9 6 -16 16 -16 23 0 6 -4 11 -9 11 -4 0 -6 -10 -4 -23z" fill="#0a0903"/>
<path d="M2893 2323 c9 -9 20 -13 24 -9 4 4 1 11 -7 16 -25 16 -35 11 -17 -7z" fill="#0a0903"/>
<path d="M3107 2333 c-4 -3 -7 -17 -7 -30 0 -33 24 -24 28 10 3 26 -7 35 -21 20z" fill="#0a0903"/>
<path d="M881 2294 c0 -11 3 -14 6 -6 3 7 2 16 -1 19 -3 4 -6 -2 -5 -13z" fill="#0a0903"/>
<path d="M935 2300 c4 -6 12 -9 18 -7 7 2 18 -3 26 -10 7 -8 16 -11 19 -8 9 9 -13 25 -42 31 -18 3 -25 1 -21 -6z" fill="#0a0903"/>
<path d="M2790 2301 c0 -5 -9 -11 -20 -14 -21 -5 -28 -37 -9 -37 6 0 8 7 5 16 -4 11 -1 14 13 9 13 -4 20 0 24 15 3 11 1 20 -4 20 -5 0 -9 -4 -9 -9z" fill="#0a0903"/>
<path d="M3006 2291 c14 -13 64 -23 64 -12 0 9 -33 21 -59 21 -9 0 -11 -3 -5 -9z" fill="#0a0903"/>
<path d="M910 2280 c0 -5 5 -10 10 -10 6 0 10 5 10 10 0 6 -4 10 -10 10 -5 0 -10 -4 -10 -10z" fill="#0a0903"/>
<path d="M1110 2280 c0 -5 6 -10 14 -10 8 0 16 -6 19 -12 2 -7 8 -10 12 -5 5 4 0 14 -11 22 -23 17 -34 19 -34 5z" fill="#0a0903"/>
<path d="M2970 2279 c0 -5 5 -7 10 -4 6 3 10 8 10 11 0 2 -4 4 -10 4 -5 0 -10 -5 -10 -11z" fill="#0a0903"/>
<path d="M3710 2265 c1 -26 2 -28 11 -12 8 14 8 22 0 30 -8 8 -11 3 -11 -18z" fill="#0a0903"/>
<path d="M3770 2280 c0 -5 5 -10 10 -10 6 0 10 5 10 10 0 6 -4 10 -10 10 -5 0 -10 -4 -10 -10z" fill="#0a0903"/>
<path d="M2831 2261 c-8 -14 -7 -20 3 -24 9 -4 14 3 14 19 0 29 -4 30 -17 5z" fill="#0a0903"/>
<path d="M2995 2260 c-3 -5 -1 -10 4 -10 6 0 11 5 11 10 0 6 -2 10 -4 10 -3 0 -8 -4 -11 -10z" fill="#0a0903"/>
<path d="M1287 2239 c7 -7 15 -10 18 -7 3 3 -2 9 -12 12 -14 6 -15 5 -6 -5z" fill="#0a0903"/>
<path d="M2880 2240 c0 -4 11 -12 25 -18 25 -11 32 -6 17 13 -8 12 -42 16 -42 5z" fill="#0a0903"/>
<path d="M1170 2230 c0 -5 5 -10 10 -10 6 0 10 5 10 10 0 6 -4 10 -10 10 -5 0 -10 -4 -10 -10z" fill="#0a0903"/>
<path d="M2718 2228 c5 -5 16 -8 23 -6 8 3 3 7 -10 11 -17 4 -21 3 -13 -5z" fill="#0a0903"/>
<path d="M2966 2224 c-9 -23 -2 -28 13 -10 7 8 8 17 3 20 -6 3 -13 -1 -16 -10z" fill="#0a0903"/>
<path d="M3302 2208 c-7 -7 -12 -16 -12 -20 0 -15 15 -8 28 12 13 22 3 27 -16 8z" fill="#0a0903"/>
<path d="M1585 2200 c3 -5 11 -10 16 -10 6 0 7 5 4 10 -3 6 -11 10 -16 10 -6 0 -7 -4 -4 -10z" fill="#0a0903"/>
<path d="M3336 2192 c-3 -6 1 -13 10 -16 9 -3 12 -11 8 -18 -5 -9 -2 -8 9 1 10 8 16 14 15 15 -2 1 -10 7 -20 14 -9 8 -19 9 -22 4z" fill="#0a0903"/>
<path d="M1690 2171 c0 -12 5 -21 10 -21 6 0 10 6 10 14 0 8 -4 18 -10 21 -5 3 -10 -3 -10 -14z" fill="#0a0903"/>
<path d="M2798 2175 c-8 -9 3 -45 13 -45 5 0 9 6 9 13 0 17 -15 39 -22 32z" fill="#0a0903"/>
<path d="M3077 2158 c-7 -27 -5 -30 17 -22 19 7 22 44 2 44 -7 0 -16 -10 -19 -22z" fill="#0a0903"/>
<path d="M3045 2160 c3 -5 10 -10 16 -10 5 0 9 5 9 10 0 6 -7 10 -16 10 -8 0 -12 -4 -9 -10z" fill="#0a0903"/>
<path d="M2846 2148 c3 -4 16 -8 30 -8 13 0 24 4 24 8 0 5 -13 9 -30 9 -16 0 -27 -4 -24 -9z" fill="#0a0903"/>
<path d="M3150 2128 c0 -20 20 -37 37 -31 11 4 12 -1 7 -23 -6 -25 -5 -26 8 -13 9 8 14 17 11 22 -6 10 9 9 26 -2 17 -11 51 3 51 21 0 6 -9 3 -20 -7 -18 -16 -20 -17 -26 -1 -4 10 -13 15 -21 12 -8 -4 -28 3 -44 15 -21 15 -29 17 -29 7z" fill="#0a0903"/>
<path d="M3280 2129 c0 -5 5 -7 10 -4 6 3 10 8 10 11 0 2 -4 4 -10 4 -5 0 -10 -5 -10 -11z" fill="#0a0903"/>
<path d="M3390 2129 c0 -18 20 -49 32 -49 9 0 9 3 0 12 -7 7 -12 20 -12 30 0 10 -4 18 -10 18 -5 0 -10 -5 -10 -11z" fill="#0a0903"/>
<path d="M3100 2112 c0 -4 9 -13 20 -20 24 -15 27 -34 4 -25 -12 4 -15 2 -10 -8 3 -8 9 -22 12 -31 8 -21 34 -32 34 -13 0 7 -5 17 -10 20 -6 3 -7 17 -4 31 4 14 1 31 -6 39 -13 16 -40 21 -40 7z" fill="#0a0903"/>
<path d="M3305 2110 c-3 -5 -2 -10 4 -10 5 0 13 5 16 10 3 6 2 10 -4 10 -5 0 -13 -4 -16 -10z" fill="#0a0903"/>
<path d="M3357 2113 c-4 -3 -7 -11 -7 -17 0 -6 5 -5 12 2 6 6 9 14 7 17 -3 3 -9 2 -12 -2z" fill="#0a0903"/>
<path d="M2991 2092 c-11 -20 -9 -25 11 -42 13 -11 26 -19 31 -20 13 0 7 21 -8 26 -8 4 -13 9 -11 13 2 3 0 15 -4 26 -7 19 -7 19 -19 -3z" fill="#0a0903"/>
<path d="M2065 2080 c3 -5 8 -10 11 -10 2 0 4 5 4 10 0 6 -5 10 -11 10 -5 0 -7 -4 -4 -10z" fill="#0a0903"/>
<path d="M3300 2080 c0 -5 5 -10 11 -10 5 0 7 5 4 10 -3 6 -8 10 -11 10 -2 0 -4 -4 -4 -10z" fill="#0a0903"/>
<path d="M2670 2060 c0 -5 5 -10 10 -10 6 0 10 5 10 10 0 6 -4 10 -10 10 -5 0 -10 -4 -10 -10z" fill="#0a0903"/>
<path d="M2716 2057 c3 -10 9 -15 12 -12 3 3 0 11 -7 18 -10 9 -11 8 -5 -6z" fill="#0a0903"/>
<path d="M3356 2052 c-3 -10 -15 -18 -26 -18 -27 0 -25 14 3 19 12 2 6 4 -15 3 -31 -1 -34 -3 -25 -16 19 -24 26 -27 67 -28 l39 -2 -11 30 c-11 34 -24 39 -32 12z" fill="#0a0903"/>
<path d="M2915 2050 c-3 -5 -1 -10 4 -10 6 0 11 5 11 10 0 6 -2 10 -4 10 -3 0 -8 -4 -11 -10z" fill="#0a0903"/>
<path d="M3210 2050 c0 -5 5 -10 11 -10 5 0 7 5 4 10 -3 6 -8 10 -11 10 -2 0 -4 -4 -4 -10z" fill="#0a0903"/>
<path d="M2973 2030 c-3 -11 -9 -20 -14 -20 -5 0 -9 -4 -9 -9 0 -11 38 -21 56 -14 11 4 11 7 -1 19 -8 8 -12 21 -9 29 4 8 1 15 -6 15 -6 0 -14 -9 -17 -20z" fill="#0a0903"/>
<path d="M2615 2030 c-3 -5 -1 -10 4 -10 6 0 11 5 11 10 0 6 -2 10 -4 10 -3 0 -8 -4 -11 -10z" fill="#0a0903"/>
<path d="M2836 2031 c-4 -7 -5 -15 -2 -18 9 -9 19 4 14 18 -4 11 -6 11 -12 0z" fill="#0a0903"/>
<path d="M3240 2033 c0 -5 5 -15 10 -23 7 -12 10 -12 10 -1 0 8 6 11 16 7 14 -5 15 -4 4 9 -13 15 -40 21 -40 8z" fill="#0a0903"/>
<path d="M2735 2020 c3 -5 8 -10 11 -10 2 0 4 5 4 10 0 6 -5 10 -11 10 -5 0 -7 -4 -4 -10z" fill="#0a0903"/>
<path d="M3411 1998 c0 -16 2 -18 6 -8 3 8 11 18 17 22 7 5 4 8 -6 8 -12 0 -18 -7 -17 -22z" fill="#0a0903"/>
<path d="M3317 1992 c-18 -4 -17 -5 2 -18 20 -15 41 -12 41 6 0 11 -21 17 -43 12z" fill="#0a0903"/>
<path d="M3035 1980 c-3 -5 1 -10 9 -10 9 0 16 5 16 10 0 6 -4 10 -9 10 -6 0 -13 -4 -16 -10z" fill="#0a0903"/>
<path d="M3280 1960 c0 -5 5 -10 11 -10 5 0 7 5 4 10 -3 6 -8 10 -11 10 -2 0 -4 -4 -4 -10z" fill="#0a0903"/>
<path d="M20 1520 c0 -5 5 -10 10 -10 6 0 10 5 10 10 0 6 -4 10 -10 10 -5 0 -10 -4 -10 -10z" fill="#0a0903"/>
<path d="M7150 885 c0 -8 5 -15 11 -15 5 0 8 4 5 9 -4 5 0 12 6 14 8 3 6 6 -4 6 -10 1 -18 -6 -18 -14z" fill="#0a0903"/>
<path d="M160 866 c0 -2 7 -9 15 -16 13 -11 14 -10 9 4 -5 14 -24 23 -24 12z" fill="#0a0903"/>
<path d="M70 828 c0 -9 5 -20 10 -23 13 -8 13 5 0 25 -8 13 -10 13 -10 -2z" fill="#0a0903"/>
<path d="M135 821 c-6 -11 9 -23 19 -14 9 9 7 23 -3 23 -6 0 -12 -4 -16 -9z" fill="#0a0903"/>
<path d="M175 780 c3 -5 8 -10 11 -10 2 0 4 5 4 10 0 6 -5 10 -11 10 -5 0 -7 -4 -4 -10z" fill="#0a0903"/>
<path d="M5160 671 c0 -5 5 -13 10 -16 6 -3 10 -2 10 4 0 5 -4 13 -10 16 -5 3 -10 2 -10 -4z" fill="#0a0903"/>
<path d="M6510 650 c0 -5 5 -10 11 -10 5 0 7 5 4 10 -3 6 -8 10 -11 10 -2 0 -4 -4 -4 -10z" fill="#0a0903"/>
<path d="M2797 610 c-3 -11 -2 -20 3 -20 4 0 10 9 13 20 3 11 2 20 -3 20 -4 0 -10 -9 -13 -20z" fill="#0a0903"/>
<path d="M870 461 c0 -5 9 -11 20 -14 24 -6 27 8 4 17 -21 8 -24 8 -24 -3z" fill="#0a0903"/>
<path d="M2745 360 c3 -5 10 -10 16 -10 5 0 9 5 9 10 0 6 -7 10 -16 10 -8 0 -12 -4 -9 -10z" fill="#0a0903"/>
<path d="M1055 340 c-3 -5 -1 -10 4 -10 6 0 11 5 11 10 0 6 -2 10 -4 10 -3 0 -8 -4 -11 -10z" fill="#0a0903"/>
<path d="M2120 325 c0 -8 4 -15 10 -15 5 0 7 7 4 15 -4 8 -8 15 -10 15 -2 0 -4 -7 -4 -15z" fill="#0a0903"/>
<path d="M1006 305 c4 -8 10 -15 15 -15 4 0 6 7 3 15 -4 8 -10 15 -15 15 -4 0 -6 -7 -3 -15z" fill="#0a0903"/>
<path d="M1046 305 c7 -17 20 -20 28 -6 3 5 -1 12 -10 15 -22 9 -24 8 -18 -9z" fill="#0a0903"/>
<path d="M1130 199 c0 -5 5 -7 10 -4 6 3 10 8 10 11 0 2 -4 4 -10 4 -5 0 -10 -5 -10 -11z" fill="#0a0903"/>
<path d="M1382 174 c14 -14 21 -15 30 -6 8 8 9 12 1 12 -6 0 -20 3 -30 6 -17 7 -17 6 -1 -12z" fill="#0a0903"/>
<path d="M6956 178 c5 -8 2 -9 -9 -5 -21 8 -22 -6 -2 -23 9 -8 15 -8 15 -2 0 6 3 17 6 26 3 9 1 16 -6 16 -6 0 -8 -5 -4 -12z" fill="#0a0903"/>
<path d="M2348 173 c6 -2 18 -2 25 0 6 3 1 5 -13 5 -14 0 -19 -2 -12 -5z" fill="#0a0903"/>
<path d="M3762 148 c6 -18 28 -21 28 -4 0 9 -7 16 -16 16 -9 0 -14 -5 -12 -12z" fill="#0a0903"/>
<path d="M1165 139 c-4 -6 -5 -12 -2 -15 2 -3 7 2 10 11 7 17 1 20 -8 4z" fill="#0a0903"/>
<path d="M1475 130 c-3 -5 1 -10 9 -10 9 0 16 5 16 10 0 6 -4 10 -9 10 -6 0 -13 -4 -16 -10z" fill="#0a0903"/>
<path d="M1230 110 c0 -5 5 -10 11 -10 5 0 7 5 4 10 -3 6 -8 10 -11 10 -2 0 -4 -4 -4 -10z" fill="#0a0903"/>
<path d="M1455 98 c11 -15 24 -28 28 -28 15 0 1 23 -23 39 l-24 16 19 -27z" fill="#0a0903"/>
<path d="M1080 100 c0 -5 5 -10 12 -10 7 0 6 -6 -4 -17 -9 -10 -13 -24 -11 -31 3 -8 -1 -10 -11 -6 -9 3 -16 11 -16 17 0 6 -2 8 -5 5 -12 -11 21 -56 40 -54 21 1 34 36 14 36 -6 0 -3 10 5 21 12 18 13 24 1 35 -16 17 -25 18 -25 4z" fill="#0a0903"/>
<path d="M1530 94 c0 -8 5 -12 10 -9 6 4 8 11 5 16 -9 14 -15 11 -15 -7z" fill="#0a0903"/>
<path d="M2915 80 c3 -5 8 -10 11 -10 2 0 4 5 4 10 0 6 -5 10 -11 10 -5 0 -7 -4 -4 -10z" fill="#0a0903"/>
<path d="M1625 70 c-3 -5 -1 -10 4 -10 6 0 11 5 11 10 0 6 -2 10 -4 10 -3 0 -8 -4 -11 -10z" fill="#0a0903"/>
<path d="M1685 72 c-12 -13 -3 -19 27 -17 40 2 68 -13 68 -37 0 -10 5 -18 10 -18 6 0 10 6 10 14 0 8 6 16 13 19 7 3 5 7 -8 12 -11 4 -29 11 -40 15 -27 12 -73 18 -80 12z" fill="#0a0903"/>
<path d="M908 63 c7 -3 16 -2 19 1 4 3 -2 6 -13 5 -11 0 -14 -3 -6 -6z" fill="#0a0903"/>
<path d="M1527 63 c-4 -6 0 -16 8 -23 21 -17 28 -8 11 15 -8 11 -15 14 -19 8z" fill="#0a0903"/>
<path d="M1266 38 c3 -5 10 -6 15 -3 13 9 11 12 -6 12 -8 0 -12 -4 -9 -9z" fill="#0a0903"/>
<path d="M1495 34 c9 -9 19 -13 23 -10 3 4 0 11 -8 16 -24 15 -33 11 -15 -6z" fill="#0a0903"/>
<path d="M920 35 c0 -2 10 -10 23 -16 20 -11 21 -11 8 4 -13 16 -31 23 -31 12z" fill="#0a0903"/>
<path d="M1590 31 c0 -5 7 -12 16 -15 24 -9 28 -7 14 9 -14 17 -30 20 -30 6z" fill="#0a0903"/>
<path d="M1846 32 c-3 -4 11 -14 31 -21 30 -11 37 -11 50 2 13 12 13 15 -2 20 -9 4 -18 1 -21 -8 -5 -12 -9 -12 -29 1 -13 8 -26 11 -29 6z" fill="#0a0903"/>
<path d="M1650 20 c0 -5 5 -10 10 -10 6 0 10 5 10 10 0 6 -4 10 -10 10 -5 0 -10 -4 -10 -10z" fill="#0a0903"/>
<path d="M1717 23 c-4 -3 -7 -11 -7 -17 0 -6 5 -5 12 2 6 6 9 14 7 17 -3 3 -9 2 -12 -2z" fill="#0a0903"/>
<path d="M910 10 c0 -5 5 -10 11 -10 5 0 7 5 4 10 -3 6 -8 10 -11 10 -2 0 -4 -4 -4 -10z" fill="#0a0903"/>
<path d="M1538 3 c6 -2 18 -2 25 0 6 3 1 5 -13 5 -14 0 -19 -2 -12 -5z" fill="#0a0903"/>
</g>
</svg>